<?xml version="1.0" encoding="utf-8"?>
<!-- Generator: Adobe Illustrator 18.1.1, SVG Export Plug-In . SVG Version: 6.00 Build 0)  -->
<svg version="1.1" id="Layer_1" xmlns="http://www.w3.org/2000/svg" xmlns:xlink="http://www.w3.org/1999/xlink" x="0px" y="0px"
	 viewBox="0 0 190 190" enable-background="new 0 0 190 190" xml:space="preserve">
<g>
	<path fill="#918582" d="M95,0L95,0l3.3,0.1l3.2,0.1l3.1,0.2l3.1,0.3l3,0.4l3,0.5l3,0.7l2.9,0.7l2.9,0.8l2.9,0.9l2.9,1.1l2.8,1.1
		l2.8,1.2l2.9,1.4l2.8,1.5l2.8,1.6l2.8,1.7l2.7,1.7l2.6,1.8l2.5,1.8l2.4,1.9l2.3,2l2.3,2l2.2,2.1l2.1,2.2l2,2.3l2,2.3l1.9,2.4
		l1.8,2.5l1.8,2.6l1.7,2.7l1.7,2.8l1.6,2.8l1.5,2.8l1.4,2.9l1.2,2.8l1.1,2.8l1.1,2.9l0.9,2.9l0.8,2.9l0.7,2.9l0.7,3l0.5,3l0.4,3
		l0.3,3.1l0.2,3.1l0.1,3.2L190,95v0l0,0l-0.1,3.3l-0.1,3.2l-0.2,3.1l-0.3,3.1l-0.4,3l-0.5,3l-0.7,3l-0.7,2.9l-0.8,2.9l-0.9,2.9
		l-1.1,2.9l-1.1,2.8l-1.2,2.8l-1.4,2.8l-1.5,2.8l-1.6,2.9l-1.7,2.8l-1.7,2.7l-1.8,2.6l-1.8,2.5l-1.9,2.4l-2,2.3l-2,2.3l-2.1,2.2
		l-2.2,2.1l-2.3,2l-2.3,2l-2.4,1.9l-2.5,1.8l-2.6,1.8l-2.7,1.7l-2.8,1.7l-2.8,1.6l-2.8,1.5l-2.9,1.4l-2.8,1.2l-2.8,1.1l-2.9,1.1
		l-2.9,0.9l-2.9,0.8l-2.9,0.7l-3,0.7l-3,0.5l-3,0.4l-3.1,0.3l-3.1,0.2l-3.2,0.1L95,190l-3.3-0.1l-3.2-0.1l-3.1-0.2l-3.1-0.3
		l-3.1-0.4l-3-0.5l-3-0.7l-2.9-0.7l-2.9-0.8l-2.9-0.9l-2.9-1.1l-2.8-1.1l-2.8-1.2l-2.8-1.4l-2.8-1.5l-2.8-1.6l-2.8-1.7l-2.7-1.7
		l-2.6-1.8l-2.5-1.8l-2.4-1.9l-2.3-2l-2.3-2l-2.2-2.1l-2.1-2.2l-2-2.3l-2-2.3l-1.9-2.4l-1.8-2.5l-1.8-2.6l-1.7-2.7l-1.7-2.8
		l-1.6-2.9l-1.5-2.8L8.3,134l-1.2-2.8l-1.1-2.8l-1.1-2.9l-0.9-2.9l-0.8-2.9l-0.7-2.9l-0.7-3l-0.5-3l-0.4-3l-0.3-3.1l-0.2-3.1
		l-0.1-3.2L0,95l0.1-3.3l0.1-3.2l0.2-3.1l0.3-3.1l0.4-3.1l0.5-3l0.7-3l0.7-2.9l0.8-2.9l0.9-2.9l1.1-2.9l1.1-2.8L8.3,56l1.4-2.9
		l1.5-2.8l1.6-2.8l1.7-2.8l1.7-2.7l1.8-2.6l1.8-2.5l1.9-2.4l2-2.3l2-2.3l2.1-2.2l2.2-2.1l2.3-2l2.3-2l2.4-1.9l2.5-1.8l2.6-1.8
		l2.7-1.7l2.8-1.7l2.8-1.6l2.8-1.5L56,8.3l2.8-1.2l2.8-1.1l2.9-1.1l2.9-0.9l2.9-0.8l2.9-0.7l3-0.7l3-0.5l3.1-0.4l3.1-0.3l3.1-0.2
		l3.2-0.1L95,0z"/>
	<path fill="#FFFFFF" d="M76.9,54.8v16.4H62.2V95h14.7v70h28.7V95h19.7l1.9-17.8l0.1-1.5l0.2-1.5l0.2-1.5l0.1-1.5h-22.1V57.3l0-1.2
		l0.1-1.1l0.2-1l0.3-0.9l0.4-0.8l0.4-0.7l0.5-0.6l0.6-0.5l0.7-0.4l0.8-0.4l0.8-0.3l0.9-0.2l1-0.2l1.1-0.1l1.1-0.1l1.2,0H127V25
		h-18.8l-1.8,0.1l-1.8,0.1l-1.7,0.1l-1.7,0.2l-1.7,0.2l-1.6,0.3l-1.5,0.3l-1.5,0.4l-1.4,0.5L92,27.7l-1.3,0.6L89.4,29l-1.2,0.7
		l-1.1,0.8L86,31.3l-1,0.9l-0.9,1l-0.9,1l-0.8,1.1l-0.8,1.2l-0.7,1.2l-0.7,1.3l-0.6,1.3l-0.5,1.4L78.6,43l-0.4,1.5l-0.4,1.6
		l-0.3,1.7l-0.2,1.7l-0.2,1.8L77,53L76.9,54.8z"/>
</g>
</svg>
