<?xml version="1.0" encoding="utf-8"?>
<!-- Generator: Adobe Illustrator 18.1.1, SVG Export Plug-In . SVG Version: 6.00 Build 0)  -->
<svg version="1.1" id="Layer_1" xmlns="http://www.w3.org/2000/svg" xmlns:xlink="http://www.w3.org/1999/xlink" x="0px" y="0px"
	 viewBox="0 0 190 190" enable-background="new 0 0 190 190" xml:space="preserve">
<path fill="#FFFFFF" d="M95,0L95,0l3.3,0.1l3.2,0.1l3.1,0.2l3.1,0.3l3,0.4l3,0.5l3,0.7l2.9,0.7l2.9,0.8l2.9,0.9l2.9,1.1l2.8,1.1
	l2.8,1.2l2.9,1.4l2.8,1.5l2.8,1.6l2.8,1.7l2.7,1.7l2.6,1.8l2.5,1.8l2.4,1.9l2.3,2l2.3,2l2.2,2.1l2.1,2.2l2,2.3l2,2.3l1.9,2.4
	l1.8,2.5l1.8,2.6l1.7,2.7l1.7,2.8l1.6,2.8l1.5,2.8l1.4,2.9l1.2,2.8l1.1,2.8l1.1,2.9l0.9,2.9l0.8,2.9l0.7,2.9l0.7,3l0.5,3l0.4,3
	l0.3,3.1l0.2,3.1l0.1,3.2L190,95l0,0l0,0l-0.1,3.3l-0.1,3.2l-0.2,3.1l-0.3,3.1l-0.4,3l-0.5,3l-0.7,3l-0.7,2.9l-0.8,2.9l-0.9,2.9
	l-1.1,2.9l-1.1,2.8l-1.2,2.8l-1.4,2.8l-1.5,2.8l-1.6,2.9l-1.7,2.8l-1.7,2.7l-1.8,2.6l-1.8,2.5l-1.9,2.4l-2,2.3l-2,2.3l-2.1,2.2
	l-2.2,2.1l-2.3,2l-2.3,2l-2.4,1.9l-2.5,1.8l-2.6,1.8l-2.7,1.7l-2.8,1.7l-2.8,1.6l-2.8,1.5l-2.9,1.4l-2.8,1.2l-2.8,1.1l-2.9,1.1
	l-2.9,0.9l-2.9,0.8l-2.9,0.7l-3,0.7l-3,0.5l-3,0.4l-3.1,0.3l-3.1,0.2l-3.2,0.1L95,190l-3.3-0.1l-3.2-0.1l-3.1-0.2l-3.1-0.3l-3.1-0.4
	l-3-0.5l-3-0.7l-2.9-0.7l-2.9-0.8l-2.9-0.9l-2.9-1.1l-2.8-1.1l-2.8-1.2l-2.8-1.4l-2.8-1.5l-2.8-1.6l-2.8-1.7l-2.7-1.7l-2.6-1.8
	l-2.5-1.8l-2.4-1.9l-2.3-2l-2.3-2l-2.2-2.1l-2.1-2.2l-2-2.3l-2-2.3l-1.9-2.4l-1.8-2.5l-1.8-2.6l-1.7-2.7l-1.7-2.8l-1.6-2.9l-1.5-2.8
	L8.3,134l-1.2-2.8L6,128.4l-1.1-2.9L4,122.6l-0.8-2.9l-0.7-2.9l-0.7-3l-0.5-3l-0.4-3l-0.3-3.1l-0.2-3.1l-0.1-3.2L0,95l0.1-3.3
	l0.1-3.2l0.2-3.1l0.3-3.1l0.4-3.1l0.5-3l0.7-3L3,70.3l0.8-2.9l0.9-2.9l1.1-2.9l1.1-2.8L8.3,56l1.4-2.9l1.5-2.8l1.6-2.8l1.7-2.8
	l1.7-2.7l1.8-2.6l1.8-2.5l1.9-2.4l2-2.3l2-2.3l2.1-2.2l2.2-2.1l2.3-2l2.3-2l2.4-1.9l2.5-1.8l2.6-1.8l2.7-1.7l2.8-1.7l2.8-1.6
	l2.8-1.5L56,8.3l2.8-1.2L61.6,6l2.9-1.1L67.4,4l2.9-0.8l2.9-0.7l3-0.7l3-0.5l3.1-0.4l3.1-0.3l3.1-0.2l3.2-0.1L95,0z"/>
<path fill="#918582" d="M69,59.3h1.1h1.1h0.9H73l0.8,0.1l0.8,0.1l0.7,0.1l0.6,0.1l0.5,0.1l0.5,0.2l0.5,0.2l0.4,0.2l0.4,0.2l0.3,0.3
	l0.3,0.3l0.2,0.3l0.2,0.4l0.1,0.4l0.1,0.5l0.1,0.5l0.1,0.5l0.1,0.6V65v0.7v0.7v0.8V68v0.9v0.9v1v1v1.1v0.5v0.5V75v1.3l-0.1,1.4
	L79.4,79l-0.1,1.5L79,83.7l-0.2,1.5l-0.2,1.5l-0.2,1.5l-0.3,1.4l-0.3,1.3L77.4,92l-0.2,0.5L77,93l-0.2,0.4l-0.2,0.4l-0.2,0.3
	l-0.2,0.2L76,94.5l-0.3,0.2l-0.3,0.1L75,94.9h-0.3h-0.3l-0.6-0.2l-0.7-0.3l-0.7-0.5l-0.7-0.6l-0.8-0.7l-0.8-0.8l-0.8-0.9l-0.8-1
	l-0.8-1l-0.8-1.1l-0.8-1.1l-0.8-1.2L63.4,83l-1.6-2.5L60.3,78l-0.7-1.2l-0.7-1.1l-0.6-1.1l-0.6-1l-0.5-1l-0.5-0.8L56.3,71l-0.4-0.7
	l-0.3-0.5l-0.2-0.4L55,68.7L54.4,68l-0.5-0.9l-0.6-0.9l-0.6-1L52,64.1L50.6,62l-1.4-2.1l-0.7-1L47.8,58l-0.7-0.8l-0.6-0.7l-0.6-0.6
	l-0.5-0.5l-0.2-0.2L44.9,55l-0.4-0.1L44,54.7l-0.5-0.1l-0.6-0.1l-0.7-0.1l-0.7-0.1l-0.8-0.1l-0.8-0.1L38.2,54l-1.9,0h-1.9h-1.9h-1.9
	h-1.8h-1.7h-0.8l-0.8,0.1h-0.7h-0.6l-0.6,0.1h-0.5l-0.5,0.1h-0.4l-0.7,0.1l-0.7,0.2l-0.6,0.2l-0.5,0.3l-0.4,0.3l-0.4,0.4l-0.3,0.4
	l-0.2,0.4l0,0.4l-0.1,0.5L18.2,58v0.5V59l0.1,0.6l0.2,1.2l0.4,1.2l0.4,1.2l0.5,1.2l0.5,1.2l0.5,1.2l0.5,1.1l0.5,1l0.4,0.9L24,74
	l1.9,4.2l1.9,4.2l2,4.1l0.9,1.7l0.9,1.7l1,1.8l1,1.8l1.1,1.8l1.1,1.8l1.2,1.8l1.2,1.8l2.5,3.7l2.7,3.6l2.8,3.6l2.9,3.5l3,3.4
	l1.6,1.7l1.6,1.6l1.6,1.6l1.6,1.5l1.6,1.5l1.7,1.4l1.7,1.4l1.7,1.3l1.7,1.2l1.7,1.2l1.7,1.1l1.7,1.1l1.7,1l1.7,0.9l1.2,0.6l1.2,0.5
	l1.2,0.5l1.2,0.4l1.2,0.4L83,140l2.5,0.6L88,141l2.6,0.3l2.6,0.2l2.6,0.1H97l1.2-0.1l1-0.1l0.9-0.1l0.8-0.1l0.7-0.2l0.7-0.2l0.5-0.2
	l0.5-0.2l0.4-0.3l0.4-0.3l0.3-0.4l0.2-0.4l0.2-0.4l0.1-0.4l0.1-0.4l0.1-1v-1v-1.1v-1.2l0.1-1.3l0.1-0.7l0.1-0.7l0.2-0.7l0.2-0.8
	l0.2-0.7l0.3-0.8l0.3-0.7l0.3-0.7l0.3-0.6l0.4-0.6l0.4-0.5l0.4-0.5l0.8-0.8l0.8-0.7l0.8-0.5l0.9-0.4l0.9-0.3l0.9-0.1l1-0.1l1,0.1
	l1,0.2l1,0.2l1,0.4l1,0.4l1,0.5l1,0.5l1,0.6l1,0.7l1,0.7l2,1.5l1.8,1.6l1.8,1.6l1.6,1.6l0.8,0.7l0.7,0.7l0.7,0.7l0.6,0.6l0.7,0.7
	l0.7,0.7l0.6,0.6l0.6,0.5l0.5,0.5l0.5,0.5l0.5,0.4l0.4,0.4l0.4,0.4l0.4,0.3l0.7,0.5l0.7,0.4l0.7,0.3l0.7,0.2l0.8,0.2l0.9,0.1h0.5
	h0.5h0.6h0.7h0.7h0.8h0.8h0.9h0.9h1h1.2h1.3l2.6,0.1h2.7l1.4-0.1l1.4-0.1l1.3-0.2l1.3-0.3l1.2-0.4l1.1-0.5l0.6-0.3l0.5-0.4l0.5-0.4
	l0.5-0.4l0.5-0.5l0.4-0.5l0.4-0.5l0.4-0.6l0.4-0.9l0.3-0.9l0.2-0.9l0.1-0.9v-1l-0.1-1l-0.2-1l-0.3-1l-0.4-1l-0.4-1l-0.5-1l-0.6-1.1
	l-0.6-1l-0.7-1l-0.7-1l-0.8-1l-1.6-2l-1.7-2l-1.7-1.8l-1.8-1.8l-1.7-1.6l-0.8-0.8l-0.8-0.7l-0.8-0.7L155,109l-0.7-0.6l-0.6-0.5
	l-1.2-1l-1.1-0.8l-1-0.8l-0.9-0.7l-0.8-0.6l-0.6-0.6l-0.5-0.6l-0.4-0.6l-0.2-0.7l-0.1-0.4v-0.4l0.1-0.4l0.1-0.4l0.1-0.4l0.2-0.5
	l0.2-0.5l0.3-0.5l0.3-0.6l0.3-0.6l0.4-0.7l0.4-0.7l0.5-0.7l0.5-0.8l2.5-3.6l2.6-3.5l2.6-3.5l2.6-3.5l2.5-3.6l2.4-3.7l1.2-1.9
	l1.1-1.9l1.1-1.9l1-1.9l0.4-0.9l0.4-0.8l0.3-0.8l0.2-0.7l0.2-0.7l0.2-0.6l0.1-0.6l0.1-0.5v-0.5l-0.1-0.5l-0.1-0.4l-0.2-0.4l-0.2-0.4
	l-0.2-0.3l-0.3-0.3l-0.3-0.3L170,56l-0.4-0.2l-0.9-0.4l-1-0.4l-1.1-0.3l-1.2-0.3l-1.4-0.3l-1.4-0.3l-1.5-0.3l-1.9-0.4l-1.8-0.3
	l-1.7-0.3l-1.5-0.2l-1.4-0.2l-1.3-0.1l-1.2-0.1h-1.2H148l-1,0.1l-0.9,0.1l-0.9,0.2l-0.8,0.2l-0.8,0.3l-0.7,0.4l-0.7,0.4l-0.7,0.5
	l-0.6,0.5l-0.6,0.6l-0.6,0.7l-0.6,0.7l-0.6,0.8l-0.6,0.9l-0.6,0.9l-0.6,1l-0.7,1.1l-0.7,1.1l-0.7,1.2l-0.7,1.3l-0.8,1.3l-0.8,1.4
	l-0.9,1.5l-0.3,0.5l-0.3,0.6l-0.4,0.8l-0.4,0.9l-0.5,1L129,74l-0.5,1.2l-0.6,1.2l-0.6,1.3l-0.6,1.3l-1.3,2.7l-1.4,2.7l-0.7,1.3
	l-0.7,1.3l-0.7,1.2l-0.7,1.2l-0.8,1.1l-0.7,1l-0.7,0.9l-0.7,0.8l-0.7,0.7l-0.7,0.5l-0.3,0.2l-0.4,0.2l-0.3,0.1l-0.4,0.1h-0.3h-0.3
	l-0.3-0.1l-0.3-0.1l-0.3-0.2l-0.3-0.2l-0.3-0.3L113,94l-0.2-0.4l-0.3-0.4l-0.2-0.5l-0.2-0.6l-0.3-0.9l-0.3-1.1l-0.2-1.2l-0.2-1.2
	l-0.1-1.4l-0.1-1.4l-0.1-1.5l-0.1-1.5v-1.6v-1.6l0.1-3.3l0.1-6.8v-3.3v-1.6l-0.1-1.6l-0.1-1.5l-0.1-1.5l-0.2-1.4l-0.2-1.3l-0.2-1.2
	l-0.3-1.1l-0.4-1l-0.4-0.9l-0.5-0.8l-0.5-0.7l-0.6-0.5L107,50l-0.4-0.2l-0.7-0.3l-0.8-0.2l-0.9-0.2l-1-0.2l-1.1-0.1l-1.2-0.1h-1.2
	h-1.3h-1.3l-1.4,0.1l-1.4,0.1L92.9,49l-1.5,0.2L89.9,49l-3,0.5l-1.5,0.3L84,50.3l-1.4,0.4l-1.4,0.4l-1.4,0.5l-1.3,0.5l-1.3,0.5
	L76,53.2l-1.2,0.6l-1.1,0.7l-1,0.7l-1,0.8l-0.8,0.8l-0.7,0.8l-0.6,0.8L69,59.3z"/>
</svg>
