<?xml version="1.0" encoding="utf-8"?>
<!-- Generator: Adobe Illustrator 18.1.1, SVG Export Plug-In . SVG Version: 6.00 Build 0)  -->
<svg version="1.1" id="Layer_1" xmlns="http://www.w3.org/2000/svg" xmlns:xlink="http://www.w3.org/1999/xlink" x="0px" y="0px"
	 viewBox="0 0 190 190" enable-background="new 0 0 190 190" xml:space="preserve">
<g>
	<path fill="#918582" d="M95.2,0L95.2,0l3.3,0.1l3.2,0.1l3.1,0.2l3.1,0.3l3,0.4l3,0.5l3,0.7l2.9,0.7l2.9,0.8l2.9,0.9l2.9,1.1
		l2.8,1.1l2.8,1.2l2.9,1.4l2.8,1.5l2.8,1.6l2.8,1.7l2.7,1.7l2.6,1.8l2.5,1.8l2.4,1.9l2.3,2l2.3,2l2.2,2.1l2.1,2.2l2,2.3l2,2.3
		l1.9,2.4l1.8,2.5l1.8,2.6l1.7,2.7l1.7,2.8l1.6,2.8l1.5,2.8l1.4,2.9l1.2,2.8l1.1,2.8l1.1,2.9l0.9,2.9l0.8,2.9l0.7,2.9l0.7,3l0.5,3
		l0.4,3l0.3,3.1l0.2,3.1l0.1,3.2l0.1,3.3v0l0,0l-0.1,3.3l-0.1,3.2l-0.2,3.1l-0.3,3.1l-0.4,3l-0.5,3l-0.7,3l-0.7,2.9l-0.8,2.9
		l-0.9,2.9l-1.1,2.9l-1.1,2.8l-1.2,2.8l-1.4,2.8l-1.5,2.8l-1.6,2.9l-1.7,2.8l-1.7,2.7l-1.8,2.6l-1.8,2.5l-1.9,2.4l-2,2.3l-2,2.3
		l-2.1,2.2l-2.2,2.1l-2.3,2l-2.3,2l-2.4,1.9l-2.5,1.8l-2.6,1.8l-2.7,1.7l-2.8,1.7l-2.8,1.6l-2.8,1.5l-2.9,1.4l-2.8,1.2l-2.8,1.1
		l-2.9,1.1l-2.9,0.9l-2.9,0.8l-2.9,0.7l-3,0.7l-3,0.5l-3,0.4l-3.1,0.3l-3.1,0.2l-3.2,0.1l-3.3,0.1l-3.3-0.1l-3.2-0.1l-3.1-0.2
		l-3.1-0.3l-3.1-0.4l-3-0.5l-3-0.7l-2.9-0.7l-2.9-0.8l-2.9-0.9l-2.9-1.1l-2.8-1.1l-2.8-1.2l-2.8-1.4l-2.8-1.5l-2.8-1.6l-2.8-1.7
		l-2.7-1.7l-2.6-1.8l-2.5-1.8l-2.4-1.9l-2.3-2l-2.3-2l-2.2-2.1l-2.1-2.2l-2-2.3l-2-2.3l-1.9-2.4l-1.8-2.5l-1.8-2.6l-1.7-2.7
		l-1.7-2.8l-1.6-2.9l-1.5-2.8L8.5,134l-1.2-2.8l-1.1-2.8l-1.1-2.9l-0.9-2.9l-0.8-2.9l-0.7-2.9l-0.7-3l-0.5-3l-0.4-3l-0.3-3.1
		l-0.2-3.1l-0.1-3.2L0.2,95l0.1-3.3l0.1-3.2l0.2-3.1L1,82.3l0.4-3.1l0.5-3l0.7-3l0.7-2.9l0.8-2.9l0.9-2.9l1.1-2.9l1.1-2.8L8.5,56
		l1.4-2.9l1.5-2.8l1.6-2.8l1.7-2.8l1.7-2.7l1.8-2.6l1.8-2.5l1.9-2.4l2-2.3l2-2.3l2.1-2.2l2.2-2.1l2.3-2l2.3-2l2.4-1.9l2.5-1.8
		l2.6-1.8l2.7-1.7l2.8-1.7l2.8-1.6l2.8-1.5l2.8-1.4l2.8-1.2l2.8-1.1l2.9-1.1l2.9-0.9l2.9-0.8l2.9-0.7l3-0.7l3-0.5l3.1-0.4l3.1-0.3
		l3.1-0.2L92,0.1L95.2,0z"/>
	<path fill="#FFFFFF" d="M95.2,119.4l-1.3,0l-1.3-0.1l-1.2-0.2l-1.2-0.2l-1.2-0.3l-1.2-0.4l-1.1-0.4l-1.1-0.4l-1.1-0.5l-1-0.5
		l-0.9-0.6l-0.9-0.6l-0.9-0.6l-0.8-0.7l-0.7-0.7l-0.7-0.7l-0.7-0.8l-0.7-0.7l-0.7-0.8l-0.6-0.8l-0.7-1l-0.6-1l-0.6-1.1l-0.5-1.1
		l-0.5-1.1l-0.4-1.1l-0.4-1.2l-0.3-1.2l-0.2-1.2l-0.2-1.2l-0.1-1.2l-0.1-1.2v-1.2l0.1-1.2l0.1-1.2l0.2-1.2l0.3-1.1l0.3-1.1l0.3-1.1
		l0.4-1.1l0.4-1l0.5-1l0.5-1l0.6-1l0.8-1.1l0.9-1.1l0.9-1.1l1-1l1.1-0.9l1.1-0.9l1.1-0.8l1.2-0.8l1.2-0.7l1.3-0.6l1.3-0.5l1.3-0.5
		l1.4-0.4L91,72l1.4-0.2l1.4-0.1l1.5,0l1.4,0l1.3,0.1l1.2,0.1l1.1,0.2l1.1,0.2l1,0.3l0.9,0.3l1,0.4l0.9,0.4l0.9,0.5l0.9,0.6l0.9,0.6
		l1,0.7l1,0.8l1.1,0.8l0.6,0.5l0.6,0.5l1.1,1.2l1,1.3l0.9,1.3l0.6,0.9l0.5,0.9l0.5,0.9l0.4,1l0.6,1.5l0.5,1.5l0.4,1.5l0.2,1.5
		l0.2,1.5l0.1,1.5l0,1.5l-0.1,1.5l-0.2,1.4l-0.3,1.4l-0.4,1.4l-0.5,1.4l-0.5,1.3l-0.6,1.3l-0.7,1.2l-0.8,1.2l-0.8,1.1l-0.9,1.1
		l-0.9,1l-1,1l-1.1,0.9L109,115l-1.2,0.8l-1.2,0.7l-1.3,0.7l-1.3,0.6l-1.4,0.5l-1.4,0.4l-1.4,0.3l-1.5,0.2l-1.5,0.1L95.2,119.4z
		 M95.2,119.4L95.2,119.4z M57.3,93.5v1.3l0,1.3l0,1.2l0.1,1.2l0.2,2.3l0.3,2.3l0.2,1.1l0.2,1.1l0.3,1.1l0.4,1.1l0.4,1.1l0.4,1.1
		l0.5,1.2l0.6,1.2l0.5,0.9l0.4,0.8l0.4,0.8l0.4,0.7l0.8,1.3l0.8,1.2l0.9,1.2l1,1.2l0.5,0.6l0.6,0.6l0.6,0.7l0.7,0.7l1.2,1.2l1.2,1.1
		l1.3,1l1.3,0.9l1.4,0.9l1.4,0.8l1.5,0.8l1.6,0.8l0.7,0.3l0.8,0.4l0.8,0.3l0.9,0.3l1.8,0.6l0.9,0.2l0.9,0.2l0.5,0.1l0.5,0.1l0.9,0.2
		l0.9,0.1l0.5,0.1l0.6,0.1l1.7,0.2l1.6,0.1h1.6l1.6-0.1l0.5-0.1l0.4,0l0.4,0l0.3,0l0.6,0l0.5,0l0.6-0.1l0.4,0l0.4-0.1l0.5-0.1
		l0.5-0.1l0.6-0.1l0.7-0.1l1.2-0.3l1.2-0.3l1.3-0.4l1.2-0.4l1.2-0.5l1.2-0.5l1.2-0.6l1.2-0.6l1.2-0.7l1.1-0.7l1.1-0.7l1.1-0.7l1-0.8
		l1-0.8l0.9-0.8l0.9-0.9l0.4-0.4l0.4-0.4l0.3-0.3l0.3-0.3l0.5-0.5l0.4-0.4l0.4-0.4l0.4-0.5l0.2-0.3l0.3-0.4l0.3-0.4l0.4-0.5l0.7-1
		l0.7-1.1l0.7-1.1l0.7-1.2l0.7-1.2l0.6-1.3l0.6-1.3l0.5-1.3l0.5-1.4l0.4-1.4l0.4-1.4l0.3-1.4l0.3-1.4l0.2-1.4l0.1-1.4l0.1-1.4V97
		v-0.7v-0.7l0-0.8l0-1.6l-0.1-1.7l-0.1-1.6l-0.1-0.8l-0.1-0.7l-0.1-0.7l-0.2-0.7l-0.2-0.6l-0.2-0.5h10.9v52.5l0,0.5l-0.1,0.5
		l-0.1,0.4l-0.2,0.4l-0.4,0.7l-0.5,0.6l-0.2,0.2l-0.3,0.2l-0.7,0.5l-0.4,0.2l-0.4,0.2l-0.4,0.1l-0.4,0.1H52l-0.4,0l-0.4-0.1
		l-0.4-0.1l-0.4-0.2l-0.4-0.2l-0.4-0.2l-0.7-0.6l-0.5-0.7l-0.4-0.8l-0.2-0.4l-0.1-0.4l-0.1-0.4l0-0.4V86.1h10.9l-0.1,0.2l-0.1,0.3
		L58.2,87l-0.1,0.4l-0.2,1l-0.2,1.1l-0.2,1.1l-0.1,1.1l-0.1,0.5l0,0.5l0,0.4V93.5z M57.3,93.5L57.3,93.5z M118.9,66.5V53.2l0-0.5
		l0.1-0.5l0.1-0.5l0.1-0.5l0.2-0.5l0.2-0.5l0.3-0.4l0.3-0.4l0.4-0.4l0.4-0.3l0.4-0.3l0.4-0.2l0.4-0.2l0.5-0.1l0.5-0.1l0.5,0H138
		l0.5,0l0.5,0.1l0.5,0.1l0.4,0.1l0.4,0.2l0.4,0.2l0.4,0.3l0.4,0.3l0.3,0.3l0.3,0.4l0.2,0.4l0.2,0.4l0.2,0.4l0.1,0.4l0.1,0.5l0,0.5
		v14.8l0,0.5l-0.1,0.5l-0.2,0.5l-0.2,0.4l-0.2,0.4l-0.3,0.4l-0.3,0.4l-0.3,0.3l-0.3,0.3l-0.4,0.2l-0.4,0.2l-0.4,0.2l-0.5,0.1
		l-0.5,0.1l-0.5,0.1l-0.6,0h-14l-0.5,0l-0.5-0.1l-0.5-0.1l-0.4-0.2l-0.4-0.2l-0.4-0.3l-0.4-0.3l-0.4-0.4l-0.3-0.4l-0.3-0.4l-0.2-0.5
		l-0.2-0.5l-0.1-0.5l-0.1-0.5l-0.1-0.5L118.9,66.5z M118.9,66.5L118.9,66.5z M33.4,45.9v99.6l0,0.7l0.1,0.7l0.1,0.7l0.2,0.7l0.4,1.3
		l0.5,1.2l0.7,1.2l0.8,1.1l0.4,0.5l0.4,0.5l0.5,0.4l0.5,0.4l0.3,0.2l0.4,0.2l0.8,0.5l0.4,0.2l0.4,0.2l0.4,0.1l0.4,0.1h108.3l0.7-0.1
		l0.7-0.2l0.7-0.3l0.7-0.4l0.7-0.5l0.7-0.6l0.6-0.7l0.6-0.7l0.5-0.8l0.5-0.9l0.4-0.9l0.4-0.9l0.3-0.9l0.2-1l0.1-1l0.1-1V45.9
		l-0.1-1.3l-0.2-1.3l-0.3-1.2l-0.4-1.1l-0.5-1.1l-0.6-1l-0.7-0.9l-0.8-0.8l-0.9-0.8l-1-0.7l-1.1-0.6l-1.1-0.5l-1.2-0.4l-1.3-0.3
		l-1.3-0.2l-1.4-0.1H46.9l-1.5,0.1L44,33.8l-1.3,0.3l-1.3,0.4L40.2,35l-1.1,0.6l-1,0.7l-0.9,0.8l-0.8,0.8l-0.8,0.9l-0.7,1l-0.5,1.1
		L33.9,42l-0.3,1.2l-0.2,1.3L33.4,45.9z"/>
</g>
</svg>
