<?xml version="1.0" encoding="utf-8"?>
<!-- Generator: Adobe Illustrator 18.1.1, SVG Export Plug-In . SVG Version: 6.00 Build 0)  -->
<svg version="1.1" id="Layer_1" xmlns="http://www.w3.org/2000/svg" xmlns:xlink="http://www.w3.org/1999/xlink" x="0px" y="0px"
	 viewBox="0 0 255 140" enable-background="new 0 0 255 140" xml:space="preserve">
<g>
	<path fill="#604E42" d="M234.2,65l0.2,0.3L234.2,65z M234.2,65L234.2,65z M234.1,64.5L234.1,64.5L234.1,64.5l0.1,0l0,0v0.1v0.1v0.1
		v0.1V65l-0.1,0l0,0l0,0l0,0v-0.1v-0.1v-0.1v-0.1V64.5z M234.1,64.5L234.1,64.5z M229.5,56.5l0.4,0.3l0.4,0.4l0.4,0.4L231,58
		l0.4,0.5l0.3,0.5l0.3,0.5l0.3,0.5l0.1,0.2l0.1,0.2l0.1,0.3l0.1,0.3l0.3,0.6l0.3,0.7l0.3,0.7l0.1,0.3l0.1,0.3l0.1,0.3L234,64l0,0.3
		l0,0.2l-0.1-0.1l-0.1-0.1l-0.1-0.1l0-0.1l0-0.1l0-0.1l-0.1-0.1l-0.1-0.2l-0.1-0.2l-0.2-0.2l-0.2-0.3l-0.2-0.3l-0.3-0.3l-0.1-0.2
		l-0.1-0.2l-0.2-0.2l-0.2-0.3l-0.2-0.3l-0.2-0.3l-0.1-0.2l-0.1-0.2l-0.1-0.3l-0.1-0.3l-0.3-0.6l-0.3-0.6l-0.3-0.6l-0.3-0.6l-0.1-0.3
		l-0.1-0.3l-0.1-0.2L229.5,56.5z M229.5,56.5L229.5,56.5z M229.5,56.5L229.5,56.5z M76.3,7.6l-0.4,0l-0.4,0l-0.4,0.1l-0.4,0.1
		l-0.4,0.1L73.9,8l-0.8,0.3l-0.8,0.4l-0.8,0.4l-0.8,0.5l-0.8,0.5l-1.7,1l-0.9,0.5l-0.9,0.5l-0.9,0.5l-0.9,0.4l-0.9,0.4l-0.9,0.4
		L62,14l-0.7,0.2l-1.4,0.4L58.5,15l-1.4,0.4l-0.7,0.2l-0.7,0.2l-0.7,0.3l-0.7,0.3l-0.6,0.3L53.2,17l-0.6,0.4l-0.6,0.4l-0.4,0.3
		l-0.3,0.3l-0.3,0.4l-0.3,0.4l-0.3,0.4L50.1,20l-0.4,0.5l-0.2,0.3L49.3,21l-0.2,0.3l-0.3,0.3l-0.3,0.3l-0.3,0.3l-0.3,0.3l-0.4,0.3
		l-0.4,0.4l-0.4,0.4l-0.5,0.4l-0.5,0.4l-0.5,0.4L44.6,25l-0.6,0.4l-0.7,0.4l-0.7,0.5l-0.8,0.5l-1.5,0.9l-1.6,0.9l-0.8,0.4L37,29.5
		l-0.8,0.4l-0.8,0.3l-0.2,0.1l-0.2,0.1l-0.4,0.2l-0.3,0.3l-0.3,0.3l-0.3,0.3l-0.3,0.4l-0.5,0.8l-0.4,0.7L32.1,34l-0.8,1.4l-0.7,1.4
		l-0.7,1.4l-0.7,1.4l-0.6,1.5L28,42.5L27.4,44l-0.2,0.6l-0.2,0.6l-0.2,0.5l-0.2,0.5l-0.2,0.5L26,47.2L25.5,48L25,48.9l-0.3,0.4
		l-0.3,0.4l-0.3,0.5l-0.4,0.5l-0.4,0.5L23,51.8l-1.3,1.7l-1.3,1.7L19,56.7l-0.7,0.8l-0.7,0.8l-2.4,2.5l-0.3,0.5l-0.3,0.5l-0.2,0.5
		L14,62.9l-0.2,0.6l-0.2,0.6l-0.3,1.2L13,66.5l-0.3,1.2l-0.3,1.2l-0.2,0.6L12,69.9l-0.2,0.5L11.5,71l-0.3,0.6l-0.3,0.6l-0.3,0.6
		l-0.3,0.7l-0.7,1.3l-0.4,0.6l-0.4,0.6l-0.4,0.6l-0.4,0.6l-0.4,0.5l-0.4,0.5l-0.4,0.4l-0.4,0.4l-0.2,0.2l-0.2,0.2l-0.3,0.3L5.8,80
		l-0.2,0.1l-0.2,0.2L5,80.6L4.6,81l-0.4,0.4l-0.4,0.4l-0.4,0.4L3,82.7l-0.4,0.5l-0.3,0.5L2,84.1l-0.3,0.5l-0.3,0.5l-0.2,0.5
		l-0.2,0.5l-0.1,0.5l-0.1,0.5l0,0.5h9.9l0.1,0l0.1-0.1l0.1-0.1l0.1-0.2l0.2-0.2l0.2-0.2l0.2-0.3l0.2-0.3l0.2-0.3l0.2-0.4l0.2-0.4
		l0.2-0.4l0.4-0.8l0.5-0.9l0.5-0.9l0.4-0.9l0.4-0.8l0.2-0.4l0.2-0.4l0.2-0.4l0.2-0.3l0.2-0.3l0.1-0.3l0.1-0.3l0.1-0.2l0.1-0.2
		l0.1-0.1l0.4-0.8l0.4-0.8l0.7-1.6l0.7-1.7l0.7-1.7l0.7-1.7l0.7-1.7l0.7-1.6l0.4-0.8l0.4-0.8l3.1-6.3l0.5-1.1l0.6-1.1l0.6-1.2
		l0.6-1.2l1.2-2.4l1.3-2.4l1.3-2.4l0.6-1.2l0.7-1.1l0.7-1.1l0.7-1.1l0.7-1.1l0.7-1l0.6-0.9l0.6-0.8l0.6-0.8l0.6-0.8l0.6-0.7l0.6-0.7
		l0.7-0.7l0.7-0.6l0.7-0.6l0.7-0.6l0.7-0.6l0.8-0.6l0.8-0.6l0.8-0.6l0.9-0.6l0.9-0.6l0.8-0.5l0.7-0.5l0.7-0.5l0.6-0.4l0.6-0.4
		l0.5-0.4l0.5-0.4l0.5-0.4l0.4-0.4l0.4-0.4l0.8-0.7l0.8-0.6l0.8-0.6l0.4-0.3l0.4-0.3l0.5-0.3l0.5-0.3l0.5-0.3l0.6-0.3l0.6-0.3
		l0.7-0.3l0.7-0.3l0.8-0.3l0.8-0.4l0.9-0.4l0.5-0.2l0.5-0.2l0.5-0.2l0.5-0.2l0.6-0.2l0.6-0.2l0.6-0.2l0.6-0.2l1.2-0.4l1.1-0.4
		l1.1-0.5l1.1-0.5l2.1-0.9l1.1-0.5l1.1-0.5l0.6-0.3l0.5-0.3l0.5-0.2l0.5-0.2l1.6-0.7l1.6-0.6l1.6-0.6l1.6-0.6l1.6-0.6l1.6-0.6
		l1.6-0.6l1.6-0.5L92,7.7l1.6-0.5l1.6-0.5l1.7-0.5l1.7-0.4l1.7-0.4l1.7-0.4l1.7-0.4l0.7-0.1l0.7-0.1l0.7-0.1l0.7,0l0.7,0h0.7l0.7,0
		l0.7,0.1l0.7,0.1l0.7,0.1l1.3,0.2l1.3,0.3l1.3,0.3l2.7,0.7l1.3,0.3l1.3,0.3l1.4,0.3l1.4,0.2l0.7,0.1l0.7,0.1l0.7,0l0.7,0l2,0l2,0
		l2-0.1l2-0.1l3.9-0.2l2,0l2,0l1.4,0l1.4,0.1l1.4,0.1l1.4,0.2l1.3,0.2l1.3,0.3l1.3,0.3l1.3,0.3l1.3,0.4l1.3,0.4l2.6,0.8l2.6,0.8
		l2.5,0.8l0.4,0.1l0.4,0.1l0.8,0.2l0.4,0.1l0.3,0.2l0.3,0.2l0.1,0.1l0.1,0.1h-1l0,0l0.1,0.1l0.1,0.1l0.2,0.1l0.2,0.1l0.3,0.1
		l0.3,0.1l0.3,0.1l0.3,0.2l0.4,0.2l0.8,0.4l0.8,0.4l0.8,0.4l0.8,0.4l0.8,0.4l0.8,0.4l0.4,0.2l0.4,0.2l0.3,0.1l0.3,0.1l0.3,0.1
		l0.3,0.1l0.2,0.1l0.2,0.1l0.1,0.1l0.1,0l0.4,0.2l0.4,0.2l0.3,0.1l0.3,0.1l0.6,0.3l0.5,0.2l0.5,0.2l0.4,0.2l0.4,0.2l0.3,0.1l0.3,0.1
		l0.3,0.1l0.2,0.1l0.2,0.1l0.2,0.1l0.2,0.1l0.3,0.2l0.3,0.2l0.3,0.2l0.1,0.1l0.2,0.2l0.2,0.2l0.2,0.2l0.3,0.2l0.3,0.3l0.3,0.3
		l0.4,0.4l0.4,0.4l0.5,0.4l0.2,0.2l0.3,0.2l0.3,0.2l0.3,0.3l0.5,0.4l0.5,0.4l0.5,0.4l0.5,0.4l0.5,0.4l0.5,0.4l0.6,0.3l0.6,0.3
		l1.2,0.6l1.2,0.6l1.2,0.6l1.2,0.6l2.4,1.1l2.4,1.1l0.8,0.4l0.4,0.2l0.4,0.2l4.4,2.8l0.2,0.2l0.3,0.2l0.3,0.2l0.3,0.2l0.6,0.5
		l0.6,0.6l0.6,0.6l0.7,0.6l0.8,0.6l0.8,0.6l1.4,1l0.7,0.5l0.7,0.5l0.5,0.3l0.5,0.3l0.5,0.4l0.5,0.4l1.1,0.8l1.1,0.8l1.1,0.8l0.5,0.4
		l0.5,0.4l0.5,0.4l0.4,0.4l0.4,0.4l0.4,0.4l0.1,0.2l0.1,0.2l0.3,0.3l0.2,0.3l0.1,0.1l0.2,0.2l0.4,0.3l0.4,0.3l0.4,0.3l0.4,0.3
		l0.9,0.7l0.9,0.7l0.9,0.7l0.4,0.4l0.4,0.4l0.4,0.4l0.3,0.4l0.3,0.4l0.3,0.4l0.4,0.8l0.4,0.8l0.8,1.6l0.8,1.6l0.8,1.6l0.8,1.6
		l0.8,1.6l0.8,1.6l0.4,0.8l0.4,0.8l0.4,0.8l0.4,0.8l0.4,0.8l0.4,0.8l0.3,0.5l0.3,0.5l0.3,0.5l0.2,0.4l0.2,0.4l0.2,0.4l0.4,0.8
		l0.4,0.8l0.4,0.7l0.3,0.7l0.3,0.7l0.3,0.7l0.3,0.7l0.3,0.8l0.3,0.8l0.1,0.4l0.2,0.4l0.2,0.4l0.2,0.5l0.2,0.5l0.2,0.5l0.2,0.5
		l0.2,0.6l0.1,0.4l0.1,0.5L241,85l0.1,0.5l0.1,0.5l0.1,0.5l0,0.5l0,0.5l0,0.2l0,0.1l0,0.1l0,0.1l0.1,0h0.2h0.1h0.1h0.2l0.2,0h12.7
		l-0.1-0.2l-0.1-0.3l-0.1-0.3l-0.1-0.4l-0.2-0.4l-0.2-0.5l-0.2-0.5l-0.2-0.5l-0.3-0.6l-0.3-0.6l-0.3-0.6l-0.3-0.6l-0.3-0.7l-0.3-0.7
		l-0.6-1.4l-0.6-1.4l-0.6-1.5l-0.6-1.4l-0.6-1.4l-0.3-0.7l-0.3-0.7l-0.2-0.7l-0.2-0.6l-0.2-0.6l-0.2-0.6l-0.1-0.5l-0.1-0.5l-0.1-0.5
		l-0.1-0.6l-0.1-1.2l-0.1-1.2l-0.1-1.2l-0.1-1.2l-0.1-0.6l-0.1-0.6l-0.1-0.6L246,61l-0.2-0.5l-0.2-0.5l-0.3-0.6l-0.3-0.5l-0.3-0.5
		l-0.3-0.4l-0.3-0.4l-0.3-0.3l-0.3-0.3l-0.3-0.3l-0.6-0.6l-0.3-0.3l-0.3-0.3l-0.3-0.3l-0.4-0.3l-0.4-0.4l-0.4-0.4l-6.6-6.9l-0.7-1
		l-0.7-1l-0.7-1l-0.4-0.5l-0.4-0.5l-0.4-0.4l-0.4-0.4l-0.4-0.4l-0.5-0.4l-0.5-0.4l-0.5-0.3l-0.5-0.3l-0.6-0.2l-0.5-0.2l-0.5-0.1
		l-0.5-0.1l-0.5-0.1l-1.1-0.2l-1.1-0.2l-0.5-0.1l-0.5-0.2l-0.5-0.2l-0.5-0.2l-0.4-0.3l-0.4-0.3l-0.2-0.2l-0.2-0.2l-0.2-0.2l-0.2-0.2
		l-0.3-0.5l-0.2-0.5l-0.2-0.5l-0.2-0.5l-0.3-1l-0.1-0.5l-0.1-0.5l-0.2-0.5l-0.2-0.4l-0.2-0.4l-0.3-0.4l-0.2-0.2l-0.2-0.2l-0.2-0.1
		l-0.2-0.1l-0.2-0.1l-0.3-0.1l-0.3-0.1l-0.3-0.1l-0.6-0.1l-0.6-0.1l-0.5-0.1l-0.5-0.1l-0.4-0.1l-0.4,0l-0.8-0.1l-0.4-0.1l-0.4-0.1
		l-0.5-0.1l-0.5-0.2l-0.3-0.1l-0.3-0.1l-0.3-0.1l-0.3-0.1l-0.3-0.2l-0.4-0.2l-0.4-0.2l-0.4-0.2l-0.4-0.3l-0.4-0.3l-0.4-0.4l-0.4-0.4
		l-0.5-0.4l-0.5-0.5l-0.5-0.5l-0.5-0.5l-0.5-0.5l-0.5-0.6l-0.6-0.6l-0.6-0.6l-0.6-0.6l-0.6-0.5l-0.7-0.5l-0.7-0.5l-0.3-0.2l-0.3-0.1
		l-0.3-0.1l-0.3-0.1l-0.6-0.2l-0.7-0.2l-0.7-0.2l-0.8-0.1l-0.8-0.1l-0.8-0.1l-0.8-0.1l-0.8-0.2l-0.9-0.2l-0.9-0.2l-0.9-0.3l-0.9-0.3
		l-0.4-0.2l-0.4-0.2l-0.4-0.2l-0.4-0.3l-0.4-0.3l-0.4-0.2l-0.4-0.2l-0.4-0.3l-0.2-0.1l-0.2-0.1l-0.4-0.3l-0.4-0.3l-0.2-0.1l-0.2-0.2
		l-0.8-0.5l-0.8-0.6l-1.5-1.1l-1.6-1.1l-0.8-0.5l-0.8-0.5L176,10l-0.6-0.4l-0.6-0.4l-0.7-0.4l-0.7-0.4l-0.7-0.4l-0.7-0.4L171.1,7
		l-0.8-0.4l-0.8-0.4L168.9,6l-0.8-0.3l-0.7-0.2l-0.7-0.2l-0.4-0.1l-0.3,0l-0.3,0l-0.3,0l-0.6,0l-0.6,0L163,5.3l-0.6,0.1l-0.7,0.1
		l-0.7,0l-0.4,0h-0.4l-0.7,0l-0.7-0.1l-0.7-0.1l-0.7-0.1l-0.7-0.1L156.2,5l-1.3-0.4l-1.3-0.4L153,4l-0.6-0.2l-0.7-0.1L151,3.6
		l-0.7-0.1l-0.7,0l-0.7,0l-0.7-0.1l-0.6-0.1L147,3.1L146.3,3l-0.6-0.2l-0.6-0.2l-0.7-0.2l-0.7-0.2L143.1,2l-0.6-0.2l-0.6-0.2
		l-0.6-0.1l-0.6-0.1l-0.6-0.1l-0.5,0h-0.5l-0.5,0L138,1.4l-0.6,0.1l-0.6,0.2l-0.6,0.2l-0.6,0.3L135,2.5l-0.6,0.3L133.7,3L133,3.2
		l-0.7,0.1l-0.7,0.1l-0.7,0l-0.7,0l-0.8,0l-0.7-0.1l-0.7-0.1l-0.7-0.1L126.4,3l-0.7-0.2l-0.7-0.2l-0.7-0.2l-0.6-0.2l-0.6-0.1
		l-0.6-0.1l-1.2-0.2l-1.1-0.1l-1.1-0.1l-1.1-0.1l-1.1,0l-2.1,0l-2.1,0l-1,0l-1.1-0.1l-1.1-0.1l-1.1-0.2l-1.1-0.2l-0.5-0.1l-0.6-0.1
		L106,0.5l-0.3-0.1l-0.3-0.1l-0.3-0.1l-0.5-0.1L104.2,0l-0.5-0.1l-0.3,0l-0.3,0l-0.3,0l-0.3,0l-0.4,0h-0.4l-0.3,0l-0.3,0l-0.4,0.1
		L100.5,0l-0.4,0.1l-0.4,0.1l-0.7,0.3l-0.8,0.3l-0.8,0.4l-0.8,0.4L96,2.1L94.5,3l-0.7,0.5L93,3.9l-0.7,0.4l-0.7,0.4L91,5l-0.3,0.1
		l-0.3,0.1l-0.7,0.3l-0.7,0.3L88.4,6l-0.7,0.2l-0.8,0.2l-0.8,0.2L84.5,7L83,7.3l-1.6,0.2l-0.8,0.1l-0.8,0.1l-0.8,0l-0.8,0l-0.4,0
		l-0.4,0l-0.2,0l-0.3,0l-0.3,0L76.3,7.6z"/>
	<path fill="#604E42" d="M101.2,61.4l-2.3,3l-0.2,0.3l-0.2,0.2l-0.2,0.2l-0.2,0.3l-0.2,0.3l-0.2,0.3l-0.5,0.4l-0.5,0.4L96.2,67
		l-0.5,0.3l-0.5,0.2l-0.5,0.2l-0.5,0.2l-0.5,0.2l-0.5,0.1l-0.9,0.3l-0.4,0.1l-0.4,0.1l-0.4,0.2L91,69.1l-3.8,3.4L86.7,73l-0.4,0.5
		l-0.4,0.5l-0.4,0.5l-0.5,0.6l-0.4,0.6l-0.4,0.5L84,76.6l-0.2,0.2L83.6,77l-0.2,0.2l-0.2,0.2l-0.3,0.1l-0.3,0.1l-0.3,0.1l-0.3,0
		l-0.3,0l-0.4,0l-0.4,0l-0.4,0.1L80,77.9L79.3,78l-0.7,0.2l-0.7,0.3l-0.6,0.3l-0.6,0.3L76,79.4l-0.3,0.1l-0.3,0.1L75,80l-0.5,0.4
		l-0.6,0.4l-0.5,0.4l-0.5,0.4l-0.5,0.4L72,82.6l-0.1,0.1l-0.1,0.1L71.5,83l-0.2,0.2l-0.1,0.1l-0.1,0.1l-1.5,2.1l-0.1,0.2L69.4,86
		l0,0.1l0,0.1l0,0.1l0,0.1l0,0.2l0,0.2l1,0l1.1-0.1l1.1-0.1l1.1-0.2l1.1-0.2l1.1-0.3l1.1-0.3l1.1-0.3l1.1-0.4l1.1-0.4l1-0.4l1-0.4
		l0.9-0.4l0.9-0.4l0.8-0.4l0.4-0.2l0.4-0.2l0.4-0.2l0.4-0.2l0.8-0.4l0.9-0.4l0.4-0.2l0.4-0.2l0.3-0.2l0.3-0.2l0.7-0.4l0.8-0.4L92,79
		l0.8-0.5l0.9-0.5l1.7-1.1l0.8-0.6l0.8-0.6l0.8-0.6l0.8-0.6l0.7-0.6l0.7-0.6l0.3-0.3l0.3-0.3l0.3-0.3l0.2-0.3l0.1-0.2l0.2-0.2
		l0.1-0.1l0.2-0.1l0.3-0.2l0.4-0.2l0.4-0.2l0.2-0.1l0.2-0.1l0.3-0.1l0.3-0.1l0.3-0.1l0.3-0.2l8.9-4l0.2-0.1l0.2-0.1l0.1-0.1l0.1,0
		l0.2-0.1l0.1,0l0.2,0l0.1,0l0.1,0l0.2,0l0.2,0l0.2,0l0.3,0l2.4-0.2l1.2-0.1l1.2-0.2l0.8-0.1l0.8-0.1l0.7-0.1l0.7-0.1l0.6-0.1
		l0.6-0.1l0.5-0.1l0.5-0.1l0.5-0.1l0.5-0.1l0.4,0l0.4,0L128,64l0.8,0l0.8,0l0.8,0l0.4,0l0.4,0.1l0.4,0.1l0.5,0.1l0.5,0.1l0.5,0.1
		l0.5,0.1l0.6,0.1l0.6,0.1l0.7,0.2l0.7,0.2l0.8,0.2l0.9,0.2l0.9,0.2l0.9,0.2l0.8,0.2l0.8,0.2l0.8,0.2l1.6,0.5l0.8,0.3l0.8,0.3
		l0.8,0.3l0.8,0.3l0.8,0.4l0.8,0.4l0.8,0.4l0.8,0.4l0.5,0.3l0.4,0.3l0.4,0.3l0.4,0.2l0.3,0.2l0.3,0.2l0.3,0.2l0.3,0.2l0.2,0.1
		l0.2,0.1l0.2,0.1l0.2,0.1l0.4,0.2l0.3,0.2l0.3,0.1l0.4,0.1l0.4,0.2l0.2,0.1l0.2,0.1l0.3,0.1l0.3,0.1l0.3,0.1l0.3,0.1l0.4,0.1
		l0.4,0.2l0.4,0.2l0.5,0.2l0.7,0.3l0.7,0.3l0.7,0.3l0.7,0.4l0.8,0.4l0.8,0.4l0.7,0.4l0.7,0.4l0.7,0.5l0.7,0.5l0.6,0.5l0.6,0.5
		l0.5,0.6l0.5,0.6l0.2,0.3l0.2,0.3l0.2,0.3l0.2,0.3l0.1,0.3L169,82l0.1,0.2l0,0.2l0,0.2l0,0.2l0,0.2l0.1,0.3l1.2,2.1l0.2,0.2
		l0.2,0.2l0.3,0.2l0.3,0.2l0.4,0.2l0.4,0.2l0.4,0.2l0.4,0.2l0.9,0.3l0.4,0.1l0.4,0.1l0.4,0.1l0.4,0.1l0.3,0l0.3,0l0.7,0l0.7-0.1
		l0.7-0.1l0.6-0.1l0.3-0.1l0.3-0.1l0.3-0.1l0.3-0.2l0.3-0.2l0.2-0.2l0.2-0.2l0.2-0.2l0-0.2l-0.1-0.2l-0.1-0.2l-0.1-0.2l-0.1-0.2
		l-0.1-0.2l-0.3-0.5l-0.4-0.5l-0.4-0.5l-0.5-0.5l-0.5-0.5l-0.5-0.5l-0.5-0.5l-0.5-0.5l-0.5-0.5l-0.5-0.4l-0.5-0.4l-0.5-0.3l-0.4-0.3
		l-0.8-0.5l-0.7-0.4l-0.8-0.4L171,77l-0.6-0.3l-0.5-0.3l-0.5-0.3l-0.4-0.3l-0.4-0.2l-0.3-0.2l-0.3-0.2l-0.3-0.2l-0.2-0.2l-0.2-0.2
		l-0.2-0.1l-0.2-0.1l-0.3-0.2l-0.2-0.2l-0.2-0.2l-0.2-0.3l-0.1-0.2l-0.2-0.2l-0.2-0.2l-0.2-0.2l-0.2-0.2l-0.2-0.3l-0.3-0.3l-0.3-0.3
		l-0.4-0.3l-0.4-0.4l-0.4-0.4l-0.5-0.4l-3.2-2.7l-0.2-0.2l-0.2-0.2l-0.5-0.4l-0.6-0.4l-0.6-0.4l-0.6-0.4l-0.6-0.4l-0.6-0.3l-0.3-0.1
		l-0.2-0.1l-0.5-0.2l-0.4-0.2l-0.4-0.1l-0.4-0.1l-0.9-0.2l-0.5-0.1l-0.5-0.2l-0.9-0.3l-0.9-0.3l-0.9-0.3l-0.9-0.3l-0.9-0.3l-0.9-0.3
		l-1.7-0.6l-0.5-0.2l-0.4-0.1l-0.9-0.3l-0.4-0.1l-0.5-0.1l-0.5-0.1l-0.5-0.1l-1.5-0.2l-1.5-0.2l-1.5-0.3l-0.8-0.1l-0.7-0.2l-0.3-0.1
		l-0.3-0.1l-0.5-0.1l-0.3-0.1l-0.3,0l-0.3,0l-0.3,0l-1.1,0l-1,0l-1,0l-1,0l-2,0.1l-2,0.1l-0.9,0.1l-0.9,0.1l-0.9,0.2l-1,0.2
		l-0.7,0.1l-0.7,0.1l-1.4,0.1l-1.5,0.1l-1.5,0.1l-1.5,0.1l-1.5,0.1l-1.4,0.1l-0.7,0.1l-0.7,0.1L101.2,61.4z"/>
	<path fill="#604E42" d="M60,87.6l0.3,0.1l0.2,0.1l0.2,0.1l0.1,0l0.1,0l0.1,0l0.2,0h0.1l0.2,0l0.2,0l0.3,0l0.3-0.1l0.2,0l0.2,0
		l0.2,0l0.2,0l0.3-0.1l0.3-0.1l0.2,0l0.2,0l0.1,0l0.1,0l0.1,0l0.1,0l0-0.1l0-0.1l0-0.1l0-0.1l0-0.1l0-0.2l0-0.2l0.1-0.2l0.1-0.3
		l0.1-0.3l0.1-0.3l0.1-0.3l0.2-0.4l0.2-0.4l0.2-0.4l0.2-0.4l0.5-0.8l0.6-0.8l0.3-0.4l0.3-0.4l0.3-0.3l0.3-0.3l0.3-0.2l0.3-0.2
		l0.2-0.1l0.2-0.1l0.4-0.3l12.1-8.7l0.2-0.2l0.2-0.3l0.2-0.3l0.2-0.3l0.2-0.4l0.2-0.4l0.2-0.4l0.1-0.2l0.2-0.2l0.2-0.3l0.2-0.3
		l0.2-0.3l0.2-0.3l0.3-0.3l0.3-0.3l0.3-0.3l0.3-0.3l0.4-0.4l0.4-0.4l0.4-0.4l0.5-0.4l0.5-0.4l0.5-0.4l0.6-0.4l0.6-0.4l3.8-2.4
		l4.8-1.7l0.3-0.1l0.3-0.1l0.6-0.1l0.3,0l0.3,0l0.4,0l0.4,0l5.9-0.6l0.7-0.1l0.7-0.1l0.7-0.1l0.3,0l0.3,0l5.7-0.5l0.3,0l0.3,0l0.3,0
		l0.2,0l0.4,0l0.4,0l0.3,0l0.3,0l0.3-0.1l0.2-0.1l0.4-0.2l0.2-0.1l0.2-0.1l0.3-0.1l0.3-0.1l0.4-0.1l0.4-0.2l0.6-0.2l0.6-0.2l0.6-0.2
		l0.6-0.1l1.2-0.3l1.2-0.2l1.2-0.1l1.2-0.1l1.2,0l1.2,0l1.2,0.1l1.2,0.1l1.2,0.2l1.2,0.2l1.2,0.2l1.2,0.2l2.3,0.5l0.5,0.1l0.6,0.2
		l0.6,0.2l0.6,0.2l0.6,0.2l0.7,0.2l0.7,0.2l0.7,0.2l1.4,0.5l1.5,0.5l1.5,0.5l1.5,0.5l1.5,0.6l1.5,0.6l1.5,0.6l1.4,0.6l0.7,0.3
		l0.7,0.3l0.7,0.3l0.6,0.3l0.6,0.3l0.6,0.3l0.5,0.3l0.5,0.3l2,1l2,1l1,0.5l1,0.5l0.9,0.6l0.9,0.6l0.9,0.6l0.4,0.3l0.4,0.3l0.4,0.3
		l0.4,0.3l0.3,0.3l0.3,0.2l0.3,0.2l0.2,0.2l0.4,0.5l0.4,0.5l0.2,0.3l0.2,0.3l0.2,0.3l0.3,0.4l0.3,0.4l0.3,0.4l2.7,3.2l6.2,5.7
		l0.3,0.3l0.3,0.2l0.3,0.3l0.2,0.3l0.4,0.5l0.4,0.5l0.3,0.5l0.3,0.5l0.3,0.4l0.3,0.4l0.3,0.4l0.3,0.4l0.3,0.3l0.4,0.3l0.2,0.1
		l0.2,0.1l0.2,0.1l0.2,0.1l0.2,0.1l0.3,0l0.3,0l0.3,0l0.2-1l0-0.2l0-0.2l-0.1-0.3l-0.1-0.3l-0.1-0.3l-0.2-0.3l-0.2-0.3l-0.2-0.3
		l-0.2-0.3l-0.2-0.4l-0.5-0.7l-0.6-0.8l-0.6-0.8l-0.6-0.8l-0.6-0.7l-0.6-0.7l-0.6-0.7l-0.3-0.3l-0.3-0.3l-0.3-0.3l-0.3-0.3l-0.2-0.2
		l-0.2-0.2l-0.2-0.2l-0.2-0.2l-0.2-0.1l-0.1-0.1l-0.1-0.1l-0.1-0.1l-0.1-0.2l0-0.2l0-0.1l0-0.1l-0.1-0.2l-0.1-0.2l-0.1-0.2l-0.2-0.3
		l-0.1-0.2l-0.1-0.2l-0.1-0.2l-0.1-0.2l-0.6-0.8l-0.6-0.8l-0.6-0.8l-0.6-0.7l-0.7-0.7l-0.7-0.7l-1.4-1.4l-0.3-0.3l-0.4-0.3l-0.4-0.3
		l-0.4-0.3l-0.9-0.5l-0.4-0.3l-0.4-0.2l-1.1-0.6l-1.1-0.6l-1.1-0.6l-1.1-0.5l-2.3-1.1l-1.2-0.5l-1.2-0.6l-0.3-0.1l-0.2-0.1l-0.4-0.2
		l-0.1-0.1l-0.1-0.1l-0.2-0.1l-0.2-0.1l-0.1-0.1l-0.1-0.1l-0.4-0.2l-0.4-0.2l-0.4-0.2l-0.2-0.1l-0.2-0.1l-0.4-0.2l-0.3-0.2l-0.7-0.4
		l-0.6-0.3l-0.6-0.3l-0.5-0.3l-0.5-0.3l-1-0.4l-1-0.4l-0.5-0.2l-0.6-0.2l-0.6-0.2l-0.7-0.3l-0.7-0.3l-0.4-0.2l-0.4-0.2l-3.8-1.6
		l-0.3-0.1l-0.3-0.1l-0.5-0.1l-0.5-0.1l-0.3-0.1l-0.3-0.1l-0.6-0.2l-0.5-0.2l-0.5-0.2l-0.4-0.2l-0.4-0.2l-0.4-0.2l-0.7-0.3l-0.4-0.1
		l-0.4-0.1l-0.4-0.1l-0.5-0.1l-0.5-0.1l-0.6,0l-0.3,0l-0.3,0l-0.4,0h-0.4h-0.2l-0.2,0l-0.3,0l-0.3,0.1l-0.3,0.1l-0.3,0.1l-0.2,0
		l-0.2,0l-0.2,0l-0.2,0l-0.3,0h-0.3l-0.3,0l-0.3-0.1l-0.3-0.1l-0.3-0.1l-0.6-0.3l-0.7-0.3l-0.7-0.3l-0.7-0.2l-0.3-0.1l-0.3-0.1
		l-0.3,0l-0.3,0l-0.3,0l-0.4,0l-0.4,0l-0.5,0l-0.5,0l-0.5,0.1l-0.6,0.1l-0.6,0.1l-0.6,0.1l-0.7,0.1l-0.7,0.1l-0.7,0.1l-1.5,0.2
		l-1.5,0.2l-1.5,0.2l-1.5,0.2l-0.7,0.1l-0.7,0.1l-0.7,0.1l-0.6,0.1l-0.6,0.1l-0.6,0.1l-0.5,0.1l-0.5,0.1l-0.4,0.1l-0.4,0.1l-0.4,0.1
		l-0.3,0l-0.5,0.1l-0.5,0.1l-0.4,0.1l-0.4,0.1l-0.4,0.1l-0.4,0.1l-0.7,0.1l-0.6,0.1l-0.6,0.1l-1.2,0.3l-0.6,0.1l-0.6,0.1l-0.7,0.1
		l-0.7,0.1l-0.4,0.1l-0.4,0.1l-0.4,0.1l-0.4,0.1l-0.5,0.1l-0.5,0.1l-0.5,0.1l-0.6,0.1l-0.7,0.1l-0.8,0.1l-1.5,0.3l-0.8,0.2l-0.7,0.2
		l-0.7,0.2l-0.7,0.2l-0.3,0.1l-0.3,0.1L90.5,56l-0.7,0.3l-0.7,0.4l-0.7,0.4l-0.7,0.4L86.9,58l-0.7,0.5L85.4,59l-0.7,0.5L84,60.1
		l-0.6,0.5l-0.6,0.6l-0.5,0.5l-0.5,0.5l-0.4,0.5l-0.2,0.3l-0.2,0.2l-0.4,0.5l-0.4,0.5l-0.2,0.3l-0.2,0.3L79.4,65l-0.2,0.3l-0.4,0.5
		l-0.3,0.5l-0.3,0.4l-0.3,0.4l-0.3,0.4L77,68.4l-0.3,0.4l-0.4,0.4l-0.4,0.4l-0.4,0.4l-0.2,0.2L75,70.6l-0.3,0.2l-0.3,0.3l-0.3,0.3
		l-0.4,0.3l-0.4,0.3l-0.4,0.3l-0.3,0.2l-0.2,0.2l-0.5,0.3l-0.5,0.4l-0.3,0.2l-0.3,0.2l-0.3,0.2l-0.3,0.2l-0.4,0.3l-0.4,0.3L69.1,75
		l-0.4,0.3l-0.9,0.7l-0.9,0.6l-0.4,0.3L66,77.2l-0.4,0.3l-0.3,0.3L65,77.9l-0.2,0.2l-0.1,0.1l-0.1,0.1l-0.1,0.2l-0.1,0.2l-0.1,0.2
		L64,79.2l-0.1,0.3l-0.2,0.3L63.6,80l-0.2,0.3L63.1,81l-0.4,0.7l-0.4,0.8L61.6,84l-0.3,0.7L61,85.5l-0.3,0.6l-0.1,0.3l-0.1,0.3
		L60.3,87l-0.1,0.2l-0.1,0.2L60,87.6z"/>
	<path fill="#604E42" d="M82.4,86.7l0.2,0.3l0.2,0.2l0.2,0.2l0.2,0.1l0.2,0.1l0.3,0H84l0.3,0l0.8-0.1l0.7-0.1l0.7-0.1l0.6-0.1
		l0.6-0.1l0.6-0.1l0.5,0l0.5,0l0.5,0l0.4,0l0.4-0.1l0.4,0l0.8-0.1l0.8-0.2l0.4-0.1l0.4-0.1l0.4-0.1l0.4-0.2l0.4-0.2l0.4-0.2l0.4-0.3
		l0.5-0.3l0.5-0.3l0.5-0.4l0.6-0.4l0.6-0.4l0.6-0.5l0.7-0.5l0.7-0.5l0.8-0.6l3.9-3.4l0.2-0.2l0.2-0.2l0.1-0.1l0.1-0.1l0.1-0.1
		l0.1-0.1l0.1-0.1l0.1-0.1l0.1-0.1l0.1-0.1l0.1-0.1l0.2-0.1l0.3-0.1l0.3-0.1l0.2-0.1l0.2-0.1l6.3-2.5h0.8h0.8h0.8l0.8,0l0.8,0
		l0.8,0.1l0.8,0.1l0.4,0.1l0.3,0.1l0.4,0.1l0.3,0.1l0.3,0.2l0.3,0.2l0.3,0.2l0.3,0.2l0.5,0.5l0.5,0.6l0.5,0.6l0.4,0.6l0.4,0.6
		l0.3,0.3l0.2,0.3l0.5,0.6l0.5,0.6l0.5,0.6l0.1,0.2l0.1,0.1l0.1,0.1l0.1,0.1l0.1,0.1l0.1,0.1l0.3,0.1l0.2,0l0.2,0l0.2,0l0.2,0l0.3,0
		l0.3,0l0.3,0l0.4,0l0.5,0.1l0.4,0.1l0.8,0.2l0.8,0.2l0.9,0.2l0.4,0.1l0.4,0.1l0.8,0.2l0.8,0.2l0.4,0.1l0.4,0.1l0.2,0l0.3,0l0.3,0
		l0.4,0l0.4,0l0.4,0.1l0.8,0.1l0.8,0.1l0.4,0.1l0.4,0.1l0.3,0.1l0.3,0.1l0.2,0.1l0.2,0.1l0.2,0.1l0.2,0.1l0.3,0.2l0.3,0.2l0.2,0.1
		l0.2,0.1l0.6,0.3l0.6,0.3l0.6,0.3l0.5,0.3l0.5,0.2l0.5,0.2l1,0.4l0.5,0.2l0.5,0.2l0.6,0.2l0.6,0.1l0.6,0.1l0.7,0.1l0.7,0.1l0.8,0.1
		l0.4,0.1l0.4,0.1l0.4,0.1l0.5,0.1l1,0.1l1,0.1l1,0.1l0.5,0l0.5,0l0.5,0l0.4,0l0.4-0.1l0.4-0.1l0.5-0.1l0.4-0.1l0.4-0.1l0.4-0.1
		l0.4-0.1l0.4-0.1l0.7-0.1l0.7-0.1l0.7-0.1l0.4,0l0.4,0l0.4-0.1l0.4-0.1l0.2,0l0.1,0l0.1,0h0.1h0.1h0l0,0l0,0l0-0.1l0-0.1l0-0.1
		l0-0.1l0-0.1l0-0.1l0-0.1l-0.1-0.1l-0.1-0.1l-0.1-0.1l-0.3-0.1l-0.4-0.2l-0.4-0.2l-0.3-0.2l-0.3-0.2l-0.3-0.2l-0.3-0.2l-0.2-0.1
		l-0.2-0.1l-0.4-0.2l-0.4-0.2l-0.4-0.1l-0.4-0.1l-0.4-0.1l-0.4,0l-0.2,0l-0.3,0l-0.3,0l-0.3,0l-0.3,0l-0.3,0l-0.4,0l-0.4,0l-0.4,0
		l-0.5,0l-0.5,0l-0.6,0l-0.2,0l-0.2,0l-0.2,0l-0.1,0l-0.1,0l-0.2,0l-0.2,0l-0.3,0l-0.4,0h-0.3h-0.3H154h-0.2l-0.2,0l-0.4,0l-0.4-0.1
		l-0.2-0.1l-0.2-0.1l-0.3-0.1l-0.3-0.1l-0.3-0.1l-0.4-0.2l-0.4-0.2l-0.4-0.2l-0.4-0.2l-0.3-0.1l-0.3-0.1l-0.3-0.1l-0.2-0.1l-0.2-0.1
		l-0.2-0.1l-0.1-0.1l-0.1-0.1l-0.1-0.1l-0.2-0.1l-0.1-0.1l-0.1-0.1l0-0.1l0-0.1l-0.1-0.1l-0.1-0.1l-0.1-0.1l-0.1-0.1l-0.1-0.1
		l-0.1-0.1l-0.1-0.1l-0.4-0.2l-0.4-0.2l-0.5-0.2l-0.5-0.2l-0.5-0.2l-0.6-0.2l-0.6-0.2l-0.6-0.2l-0.6-0.1l-0.7-0.1l-1.4-0.3l-1.4-0.2
		l-1.4-0.2l-1.3-0.2l-0.6-0.1l-0.6-0.1l-0.6-0.1l-0.6-0.1l-0.5-0.1l-0.5-0.1l-0.4,0l-0.4,0l-0.4,0l-0.3,0l-0.3,0l-0.2,0l-0.1,0
		l-0.1,0l-0.2-0.1l-0.3-0.1l-0.3-0.1l-0.3-0.1l-0.6-0.3l-0.7-0.3l-0.7-0.3l-0.3-0.1l-0.3-0.1l-0.3-0.1l-0.3-0.1l-0.3,0l-0.3,0
		l0.1-0.3l0.1-0.3l0.1-0.2l0-0.2l0-0.2l0.1-0.1l0.1-0.1l0.1-0.1l0.1,0h0.1h0.1l0.1,0l0.2,0l0.2,0l0.2,0l0.3,0.1l0.3,0.1l0.3,0.1
		l0.3,0.1l0.4,0.1l0.4,0.1l0.4,0.1l0.5,0.2l0.5,0.2l0.5,0.1l0.5,0.1l1,0.2l0.9,0.1l0.9,0.1l0.9,0.1l1,0l1,0h1l0.4,0l0.4,0l0.6,0.1
		l0.3,0l0.3,0l0.4,0h0.4l4.3,0l0.2,0l0.2,0l0.2,0.1l0.2,0.1l0.2,0.1l0.2,0.1l0.2,0.2l0.2,0.2l0.2,0.2l0.3,0.2l0.3,0.2l0.3,0.2
		l0.4,0.3l0.4,0.3l0.4,0.3l0.5,0.3l0.8,0.5l0.8,0.4l0.8,0.4l0.8,0.4l0.8,0.3l0.9,0.3l0.9,0.3l0.9,0.3l0.9,0.2l0.9,0.2l0.9,0.2l1,0.1
		l1,0.1l1,0.1l1,0l1,0l0-0.3l-0.1-0.3l-0.1-0.3l-0.2-0.3l-0.2-0.3l-0.2-0.3l-0.3-0.3l-0.3-0.3l-0.3-0.3l-0.3-0.3l-0.4-0.3l-0.4-0.2
		l-0.8-0.5l-0.9-0.5l-0.9-0.4l-0.9-0.4l-0.9-0.4l-0.9-0.4l-0.9-0.3l-0.8-0.3l-0.4-0.1l-0.4-0.1l-0.4-0.1l-0.3-0.1l-0.7-0.3l-0.7-0.4
		l-0.7-0.4l-0.7-0.4l-1.4-0.8l-0.7-0.4l-0.7-0.4l-0.8-0.4l-0.8-0.3l-0.4-0.1l-0.4-0.1l-0.5-0.1l-0.5-0.1l-0.5-0.1l-0.5-0.1l-0.5-0.1
		l-0.6-0.1l-0.6-0.1l-0.6,0l-0.7,0l-0.7,0l-6.1,0l-0.3,0l-0.2,0l-0.2,0l-0.2,0l-0.2,0l-0.2,0l-0.3,0l-0.2,0l-0.2,0l-0.3,0l-0.2,0
		l-0.2,0l-0.3,0l-0.2,0l-0.2,0l-0.2,0l-0.2,0l-0.2,0l-0.3,0l-0.3,0l-0.3,0l-0.4,0l-0.4-0.1l-0.8-0.1l-0.8-0.1l-0.9-0.1l-0.9-0.1
		l-0.8-0.1l-0.7-0.1l-0.7-0.1l-0.7,0l-0.7,0l-0.7,0h-0.7l-0.6,0l-0.6,0l-0.6,0l-1.2,0.1l-1.2,0.2l-1.2,0.3l-1.2,0.3l-1.2,0.4
		l-1.2,0.4l-1.2,0.5l-1.2,0.5l-1.3,0.6l-1.3,0.6l-1.3,0.7l-0.3,0.2l-0.3,0.1l-0.5,0.3l-0.5,0.3l-0.4,0.2l-0.4,0.2l-0.4,0.2l-0.3,0.2
		l-0.3,0.2l-0.6,0.4l-0.3,0.2l-0.3,0.2L99,77l-0.4,0.3l-0.4,0.3l-0.4,0.3l-0.3,0.2l-0.2,0.2l-0.4,0.4l-0.4,0.4l-0.2,0.2L96,79.6
		l-0.3,0.2L95.5,80l-0.4,0.4l-0.4,0.4L94.5,81l-0.2,0.2l-0.6,0.5l-0.6,0.5l-0.6,0.5l-0.6,0.5l-0.6,0.5l-0.6,0.4l-0.6,0.4l-0.7,0.4
		l-0.7,0.4l-0.7,0.3L87,86.1l-0.8,0.2l-0.4,0.1l-0.4,0.1l-0.5,0.1l-0.5,0.1L84,86.7l-0.5,0l-0.5,0L82.4,86.7z"/>
	<path fill="#604E42" d="M113.1,31.4h-0.4l-0.4,0l-0.4,0l-0.4,0l-0.4,0l-0.3,0l-0.3,0l-0.3,0l-0.3,0l-0.3,0l-0.5,0.1l-0.4,0.1
		l-0.4,0.1l-0.3,0.1l-0.3,0.1l-0.2,0.1l-0.2,0.1l-0.4,0.1l-0.2,0l-0.2,0l-0.8,0l-0.8,0.1l-0.8,0.1l-0.8,0.1l-0.8,0.1l-0.7,0.2
		l-1.5,0.4L99,33.6l-1.4,0.3L96.8,34l-0.7,0.1l-0.7,0.1l-0.7,0l-0.9,0l-0.9,0.1l-0.4,0.1l-0.4,0.1l-0.4,0.1l-0.4,0.1l-0.6,0.2L90,35
		l-1.1,0.4l-1.1,0.4L87.2,36l-0.6,0.1l-0.5,0.1l-0.4,0.1l-0.9,0.3L84,37l-0.8,0.4l-0.8,0.4l-0.8,0.5l-0.8,0.5L80,39.4l-0.7,0.5
		l-0.7,0.5l-1.4,1.1l-0.7,0.6l-0.7,0.6l-0.7,0.6l-0.7,0.6l-0.7,0.6l-0.6,0.7l-0.6,0.7l-0.6,0.7l-0.5,0.7L71,47.9l-0.4,0.7l-0.4,0.7
		l-0.1,0.2L70,49.8L70,49.9l0,0.1l0,0.1l0,0.2l0,0.2l0,0.3L69.7,51l-0.1,0.2l-0.1,0.3l-0.2,0.3L69,52.1l-0.2,0.3l-0.5,0.7l-0.5,0.7
		l-0.3,0.3l-0.3,0.3L67,54.7L66.8,55l-0.2,0.2l-0.2,0.2l-0.2,0.2l-0.2,0.2L65.9,56l-0.2,0.1l-0.4,0.2L65,56.4l-0.3,0.1l-0.3,0.1
		l-0.3,0.2l-0.3,0.2l-0.3,0.3l-0.4,0.3L62.8,58l-0.2,0.2l-0.2,0.2l-0.2,0.2L62,59l-0.3,0.4l-0.3,0.3l-0.2,0.3L61,60.2l-0.2,0.2
		l-0.2,0.2l-0.1,0.2l-0.1,0.2l-0.1,0.1l-0.1,0.1L60,61.4l-0.2,0.1l-0.2,0.1l-0.2,0.1l-0.2,0.1L59,61.9L58.9,62l-0.2,0.1l-0.2,0.1
		l-0.2,0.1l-0.2,0.1l-0.3,0.1l-0.3,0.2l-0.3,0.2l-0.4,0.2l-0.4,0.2l-0.2,0.1L56,63.7l-0.3,0.2L55.4,64l-0.6,0.4L54.1,65l-0.6,0.5
		l-0.3,0.2l-0.3,0.2l-0.3,0.2l-0.2,0.2l-0.2,0.2l-0.2,0.2l-1.4,2.5l-0.6,0.9l-0.6,0.9L48.9,72l-0.6,0.8L47,74.6l-0.7,0.8l-0.7,0.9
		l-0.7,0.9l-0.6,0.9l-0.6,0.9l-0.5,1l-0.5,1l-0.4,1l-0.2,0.5l-0.2,0.5L42,83.7l-0.1,0.6l0,0.2l0,0.2l0,0.2l0,0.2l-0.1,0.5l0,0.5
		l0,0.5V87l0,0.2l0,0.2l0,0.2l0,0.1l0.2-0.1l0.2-0.1l0.2-0.2l0.1-0.2l0.1-0.2l0.1-0.2l0.2-0.4l0.1-0.2l0.1-0.2l0.2-0.4l0.2-0.4
		l0.1-0.2l0.1-0.3l0.2-0.5l0.2-0.5l0.3-0.5l0.3-0.5l0.6-1.1l0.6-1.2l0.6-1.2l0.6-1.2l1.3-2.5l0.7-1.2l0.7-1.2l0.7-1.1l0.7-1.1
		l0.4-0.5l0.3-0.5l0.4-0.5l0.3-0.4l0.3-0.4l0.3-0.4l0.3-0.4l0.3-0.3l0.5-0.5l0.5-0.5l0.5-0.5l0.5-0.4l1.2-0.9l1.2-0.9l1.3-0.9
		l1.3-0.9l1.3-0.9l1.3-0.9l1.2-0.9l1.2-1l0.6-0.5l0.5-0.5l0.5-0.5l0.5-0.5l0.5-0.5l0.5-0.5l0.4-0.6l0.4-0.6l0.4-0.6l0.3-0.6l0.3-0.6
		l0.3-0.7l0.3-0.7l0.3-0.7l0.4-0.6l0.4-0.6l0.4-0.6l0.5-0.6l0.5-0.5l0.5-0.5l0.5-0.5l0.6-0.5l1.2-1l1.2-0.9l1.1-1l1.5-1.3L81,41
		l0.2-0.2l0.4-0.4l0.2-0.2l0.2-0.1l0.2-0.1l0.2,0l0.4,0l0.4,0l0.3,0.1l0.3,0.1l0.6,0.2l0.6,0.2l1.1,0.5l0.6,0.2l0.6,0.2l0.3,0.1
		l0.3,0.1l0.3,0l0.4,0l0.4,0l0.4,0l0.9,0h0.9l0.9,0l0.4,0l0.4,0l0.3,0l0.3,0l0.5-0.1l0.6,0l0.6,0l0.6,0l1.2,0l1.2,0l1.2,0h1.2l0.6,0
		l0.6,0l0.6-0.1l0.5-0.1l0.7-0.1l0.7-0.1l0.7-0.1l0.7,0l0.7,0h0.7l1.5,0l1.5,0l1.5,0l0.7,0l0.7,0l0.7-0.1l0.7-0.1l0.3,0l0.3,0l0.2,0
		l0.2,0l0.2,0h0.2l0.3,0l0.4,0l0.4,0l0.2,0l0.2,0l0.3,0l0.3,0l0.6,0.1l0.6,0.1l0.7,0.1l0.7,0.1l0.7,0.1l0.8,0.1l1.6,0.2L125,42
		l0.8,0.1l0.7,0.1l0.7,0l0.7,0h0.6l0.6,0l1-0.1L131,42l1.9-0.2l1-0.1l1-0.1l1-0.1l1,0h1.1l1.1,0l1.1,0l1.1,0l1.2,0.1l1.2,0.1
		l1.2,0.1l1.2,0.1l1.2,0.1l1.2,0.2l1.1,0.2l1.1,0.2l1.1,0.3l1,0.3l1,0.4l1,0.4l0.4,0.2l0.4,0.2l0.4,0.2l0.2,0.1l0.2,0l0.2,0h0.2
		l0.1,0l0.1-0.1l0.1-0.1l0.1-0.2l0-0.2l0-0.3v-0.2l0-0.1l0-0.1l0-0.1l-0.1-0.2l-0.2-0.2l-0.3-0.3l-0.4-0.2l-0.4-0.2l-0.4-0.2
		l-0.5-0.2l-0.5-0.2l-0.5-0.2l-0.6-0.2l-0.6-0.2l-0.6-0.1l-0.6-0.1l-0.7-0.1l-1.4-0.2l-1.4-0.2l-1.4-0.1l-1.4-0.1l-1.3-0.1l-0.6,0
		l-0.6,0l-0.6,0l-0.6,0l-0.5,0l-0.5,0l-0.5,0l-0.4,0h-0.4h-0.4h-8.1l-1.1,0l-1,0l-1,0l-1,0l-2,0.1l-1,0l-1,0h-0.5l-0.5,0h-0.5
		l-0.5,0l-0.5,0l-0.5-0.1l-0.5-0.1l-0.6-0.1l-0.3-0.1l-0.4-0.1l-0.4,0l-0.4,0l-0.4,0l-0.5,0l-0.5,0l-0.5,0l-1.3,0l-1.3,0.1l-0.7,0.1
		l-0.6,0.1l-0.6,0.1l-0.6,0.1l-0.4,0.1l-0.4,0h-0.4l-0.4,0l-0.9,0l-0.4,0l-0.4,0l-0.8,0.1l-0.8,0.1l-0.8,0.1l-0.9,0.1l-1.7,0.1
		l-0.8,0.1l-0.8,0.1l-0.8,0.1l-0.8,0l-0.8,0l-0.8,0l-0.9,0l-0.8,0l-1.7-0.1L90.8,40l-1.7-0.2l-1.6-0.2l-1.6-0.2l0.1-0.1l0.1-0.1
		l0.1-0.1l0.2-0.1l0.2-0.1l0.2-0.1l0.5-0.3l0.6-0.3l0.6-0.3l0.6-0.3l0.7-0.2l1.3-0.5l0.7-0.2l0.6-0.2l0.6-0.2l0.5-0.2l0.2-0.1
		l0.2-0.1l0.2-0.1l0.2,0l1.2-0.3l1.2-0.3l1.3-0.2l1.3-0.2l1.3-0.2l1.3-0.2l2.7-0.4l0.3-0.1l0.3-0.1l0.6-0.1l0.6-0.1l0.6-0.1l0.5,0
		l0.5,0l0.3,0l0.3,0l0.4,0l0.4-0.1l0.4-0.1l0.5-0.1l0.9-0.2l0.5-0.1l0.5-0.1l0.5,0l0.4,0l0.2,0l0.2,0l0.4,0l0.4,0l0.2,0l0.2,0
		l0.7-0.1l0.7-0.1l0.7,0l0.7,0l1.4,0l1.4,0.1l2.8,0.2l1.4,0.1l1.4,0h5.9l0.5,0l0.5,0l0.4-0.1l0.4-0.1l0.4-0.1l0.4-0.1l0.5,0l0.5,0
		l0.5,0l0.5,0l1.1,0h0.5h0.5l0.5,0l0.4,0l0.4,0l0.4,0l0.5,0l0.5,0l0.5,0l0.5,0l0.5,0l0.5,0.1l3.5,0.8l1,0.2l1,0.2l1,0.2l1.1,0.2
		l2.1,0.4l1.1,0.2l1.1,0.3l1.1,0.3l1,0.3l1,0.3l1,0.4l0.9,0.4l0.5,0.2l0.4,0.2l0.4,0.3l0.4,0.3l0.4,0.3l0.4,0.3l2.3,1.8l0.6,0.4
		l0.6,0.4l0.6,0.4l0.6,0.4l0.7,0.4l0.7,0.4l0.7,0.3l0.4,0.1l0.4,0.1l0.4,0.1l0.4,0.1l0.4,0.1l0.4,0.1l0.7,0.3l0.6,0.3l0.6,0.4
		l0.6,0.4l0.3,0.2l0.3,0.2l0.4,0.2l0.4,0.3l0.3,0.2l0.3,0.2l0.6,0.4l0.6,0.4l0.3,0.2l0.3,0.2l0.7,0.4l0.6,0.4l0.6,0.4l0.6,0.4l1,0.7
		l1,0.7l1,0.7l1,0.7l1.1,0.6l0.5,0.3l0.5,0.3l0.6,0.3l0.6,0.2l0.6,0.2l0.6,0.2l0.4,0.1l0.4,0.1l0.4,0.2l0.4,0.2l0.7,0.4l0.7,0.4
		l0.6,0.5l0.6,0.5l0.6,0.5l0.6,0.6l0.5,0.6l0.5,0.5l0.5,0.5l0.4,0.5l0.4,0.4l0.4,0.4l0.2,0.2l0.2,0.2l0.2,0.1l0.1,0.1l0.2,0.2
		l0.2,0.2l0.2,0.3l0.2,0.3l0.2,0.3l0.2,0.3l0.5,0.7l0.4,0.7l0.4,0.7l0.2,0.3l0.2,0.3l0.2,0.3l0.2,0.3l1.2,1.9l1.2,1.9l1.3,1.9
		l0.7,0.9l0.7,0.9l0.4,0.6l0.4,0.6l0.4,0.6l0.4,0.7l0.4,0.7l0.4,0.7l0.3,0.7l0.1,0.4l0.1,0.4l0,0.1l0,0.1l0,0.2l0,0.2l0,0.1l0,0.1
		l2.6,4.8l-1.3,1.6l0.4,0h0.5h0.5l0.2,0l0.2,0l0.3,0.1l0.3,0.1l0.3,0.1l0.2,0l0.2,0l0.1,0h0.1l0.1,0l0.1-0.1l0.1-0.1l0.1-0.2l0-0.2
		l0-0.3l0-0.3l0-0.3l-0.1-0.6l-0.2-0.7l-0.2-0.7l-0.3-0.7l-0.3-0.7l-0.3-0.7l-0.4-0.7l-0.8-1.3l-0.4-0.6l-0.4-0.6l-0.4-0.6l-0.4-0.6
		l-0.4-0.5l-0.3-0.5l-0.1-0.2l-0.1-0.2l-0.1-0.4l-0.1-0.4l-0.1-0.2l-0.1-0.2l-0.3-0.5l-0.3-0.6l-0.3-0.6l-0.3-0.6l-0.4-0.6l-0.4-0.6
		l-0.8-1.2l-0.9-1.1l-0.4-0.5l-0.4-0.5l-0.4-0.5l-0.4-0.5l-0.4-0.4l-0.4-0.4l-0.1-0.1l-0.1-0.1l-0.1-0.1l-0.1-0.1l-0.1-0.2l-0.1-0.1
		l0-0.2l-0.1-0.2l-0.1-0.2l0-0.1l-0.1-0.2l-0.2-0.5l-0.2-0.5l-0.3-0.5l-0.3-0.5l-0.3-0.5l-0.3-0.5l-0.4-0.5l-0.4-0.5l-0.4-0.5
		l-0.4-0.5l-0.9-1l-1-0.9l-1-0.9l-1-0.9l-1.1-0.8l-1.1-0.8l-1.1-0.7l-0.5-0.3l-0.5-0.3l-0.5-0.3l-0.5-0.3l-0.5-0.2l-0.5-0.2
		l-0.5-0.2l-0.5-0.2l-0.3-0.1l-0.3-0.1l-0.2-0.1l-0.2-0.1l-0.2,0l-0.2,0l-0.3-0.1l-0.2,0l-0.2,0l-0.3,0l-0.2,0l-0.2-0.1l-0.2-0.1
		l-0.1-0.1l-0.1-0.1l-0.2-0.1l-0.2-0.1l-0.2-0.1l-0.2-0.2l-0.2-0.2l-0.3-0.2l-0.3-0.2l-0.3-0.2l-0.7-0.5l-0.7-0.5l-0.7-0.5l-0.7-0.5
		l-0.5-0.4l-0.5-0.3l-0.4-0.3l-0.4-0.3l-0.3-0.2l-0.3-0.2l-0.3-0.2l-0.2-0.2l-0.2-0.1l-0.2-0.1l-0.2-0.1l-0.1-0.1l-0.3-0.2l-0.2-0.1
		l-0.2-0.1l-0.3-0.1l-0.3-0.1l-0.2-0.1l-0.2-0.1l-0.2-0.1l-0.3-0.1l-0.3-0.1l-0.3-0.1l-0.4-0.1l-0.4-0.2l-0.4-0.2l-0.5-0.2l-0.2-0.1
		l-0.2-0.1l-0.2-0.1l-0.2-0.1l-0.2-0.2l-0.3-0.2l-0.3-0.2l-0.3-0.2l-0.6-0.4l-0.7-0.5l-0.7-0.5l-0.7-0.5l-1.5-1.1l-0.8-0.5l-0.8-0.5
		L164,37l-0.7-0.4l-0.3-0.2l-0.3-0.2l-0.3-0.2l-0.3-0.1l-0.4-0.2l-0.3-0.2l-0.3-0.2l-0.3-0.2l-0.3-0.1l-0.2-0.1l-0.2-0.1l-0.2-0.1
		l-0.4-0.2l-0.3-0.2l-0.3-0.1l-0.3-0.1l-0.3-0.1l-0.3-0.1l-0.4-0.1l-0.4-0.1l-0.4-0.1l-0.3,0l-0.3,0l-0.3-0.1l-0.3,0l-0.3-0.1
		l-0.4-0.1L144,31.4l-0.1,0l-0.2,0l-0.2,0l-0.3,0l-0.3,0h-0.3h-0.3h-0.4h-0.4h-0.4l-0.9,0l-0.9,0l-0.9,0l-1.9,0l-0.9,0l-0.9,0
		l-0.4,0l-0.4,0l-0.4,0h-0.3l-0.3,0h-0.3l-0.2,0h-0.2l-0.4,0l-0.3,0l-0.3,0l-0.2,0l-0.2,0l-0.3,0l-0.3,0l-0.4,0h-0.6l-0.6,0h-1.3
		h-0.6l-0.6,0l-0.6,0l-0.5,0.1l-4.7-0.2l-0.4,0l-0.4,0l-0.4,0l-0.4,0l-0.5,0l-0.5,0l-1,0l-1,0l-1,0h-0.5l-0.4,0h-0.4H113.1z"/>
	<path fill="#604E42" d="M17.5,86.3v1.6l0.3,0l0.3,0h0.2l0.2,0l0.2-0.1l0.2-0.1l0.1-0.1l0.1-0.1l0.1-0.1l0.1-0.1l0.4-0.8l0.4-0.8
		l0.9-1.7l0.4-0.9l0.4-0.9l0.4-0.8l0.3-0.8l0.2-0.4l0.1-0.4l0.1-0.4L23,79l0.1-0.3l0.1-0.3l0.1-0.6l0.1-0.5l0.1-0.5l0.2-1l0.1-0.5
		l0.2-0.5l0.1-0.3l0.1-0.3l0.1-0.3l0.1-0.3l0.1-0.3l0.2-0.4l0.2-0.4l0.2-0.4l0.2-0.4l0.3-0.4l0.3-0.5l0.3-0.5l0.2-0.2l0.1-0.2
		l0.3-0.4l0.3-0.4l0.1-0.2l0.2-0.2l0.6-0.9l0.6-0.8l0.6-0.8l0.6-0.8l0.6-0.8l0.6-0.8l0.6-0.8l0.6-0.8l0.9-1.2l0.9-1.2l0.9-1.3
		l0.4-0.6l0.4-0.7l0.2-0.3l0.2-0.3l0.1-0.2l0.1-0.2l0.1-0.2l0.1-0.2l0.2-0.3l0.2-0.3l0.1-0.2l0.1-0.2l0.2-0.2l0.2-0.2l0.2-0.3
		l0.2-0.3l0.8-1l0.8-1l1.5-2.1l0.8-1l0.8-1l0.8-1l0.4-0.5l0.4-0.5l0.4-0.4l0.4-0.3l0.3-0.3l0.3-0.4l0.8-0.8l0.8-0.8l0.8-0.8l0.8-0.8
		l0.9-0.8l0.9-0.8l0.9-0.8l0.9-0.7l0.9-0.7l0.9-0.7l1-0.7l1-0.7l1-0.6l0.9-0.6l0.9-0.6l0.9-0.5l1.2-0.6l1.2-0.6l2.4-1.2l2.4-1.2
		l2.5-1.1l2.5-1.1l2.5-1.1l5-2l3.7-1.9l0.2-0.1l0.2-0.1l0.4-0.3l0.4-0.3l0.2-0.1l0.3-0.1l0.5-0.3l0.5-0.3l0.9-0.5l0.5-0.3l0.5-0.2
		l0.9-0.4l0.9-0.4l0.5-0.2l0.5-0.2l0.6-0.3l0.6-0.2l0.6-0.2l0.6-0.2l0.5-0.2l0.5-0.2l1.1-0.3l1.1-0.2l1.1-0.2l1.2-0.2l0.6-0.1
		l0.6-0.1l1.9-0.3l1.8-0.3l3.6-0.6l1.8-0.3l1.8-0.3l1.9-0.3l1.9-0.3l0.6-0.1l0.6-0.1l1.3-0.2l1.3-0.2l0.6-0.1l0.6-0.1l0.6-0.1
		l0.6-0.1l0.6-0.1l0.6-0.1l1.1-0.1l1-0.1l0.5,0l0.5,0l0.5,0l0.5,0l0.6,0l0.6,0.1l0.6,0.1l0.6,0.1l0.4,0.1l0.5,0.1l0.5,0.1l0.4,0.2
		l0.4,0.2l0.2,0.1l0.2,0.1l0.1,0.1l0.1,0.2l0.1,0.2l0.1,0.2l0.8,0l0.7,0l0.7,0l0.6-0.1l0.6-0.1l0.6-0.1l0.5-0.1l0.5-0.1l0.5-0.1
		l0.5-0.1l0.9-0.3l0.9-0.3l0.9-0.3l0.9-0.2l0.5-0.1l0.5-0.1l0.5-0.1l0.6,0l0.6,0l0.6,0l0.7,0l0.7,0l0.8,0.1l0.8,0.1l0.8,0.1l0.9,0.2
		l0.5,0.1l0.5,0.1l0.5,0.1l0.5,0.1l0.4,0.1l0.5,0.1l0.6,0.1l0.6,0.1l0.6,0.1l0.6,0.1l1.3,0.3l1.3,0.3l0.6,0.2l0.6,0.2l0.5,0.2
		l0.5,0.2l0.4,0.2l0.4,0.2l22.9,11.6l0.4,0.2l0.4,0.2l0.4,0.2l0.4,0.2l0.7,0.4l0.7,0.4l0.6,0.4l0.6,0.4l0.6,0.4l0.5,0.4l1.1,0.8
		l0.6,0.4l0.6,0.4l0.6,0.4l0.7,0.5l0.4,0.3l0.4,0.3l0.4,0.3l0.4,0.3l4.7,3.9l0.4,0.3l0.4,0.3l0.3,0.2l0.3,0.2l0.3,0.2l0.3,0.2
		l0.6,0.3l0.6,0.3l0.7,0.3l0.4,0.1l0.4,0.2l0.4,0.2l0.4,0.2l0.4,0.2l0.3,0.2l0.3,0.2l0.3,0.2l0.5,0.4l0.3,0.2l0.3,0.2l0.3,0.2
		l0.4,0.3l0.2,0.1l0.2,0.2l0.2,0.1l0.3,0.2l0.3,0.2l0.3,0.2l0.3,0.2l0.4,0.2l0.4,0.2l0.4,0.2l0.5,0.2l0.5,0.2L211,45l0.4,0.2
		l0.9,0.5l0.9,0.6l0.8,0.6l0.8,0.7l0.7,0.7l0.4,0.4l0.3,0.4l0.3,0.4l0.3,0.4l0.8,1l0.8,1.1l0.7,1.1l0.7,1.1l0.7,1.1l0.6,1.1l0.6,1.2
		l0.6,1.2l0.2,0.4l0.2,0.4L223,60l0.3,0.4l0.6,0.9l0.6,0.9l0.3,0.5l0.3,0.4l0.2,0.4l0.2,0.4l0.2,0.3l0.2,0.3l0.1,0.2l0,0.1l0,0.1
		l0.1,0.3l0.1,0.2l0.1,0.2l0.1,0.1l0.1,0.1l2.2,3.5l0.3,0.5l0.3,0.4l0.3,0.4l0.3,0.5l0.1,0.2l0.1,0.2l0.1,0.2l0.1,0.2l0.1,0.2
		l0.1,0.1l0.1,0.2l0.1,0.2l0.1,0.1l0,0.1l0,0.1l0.1,0.2l0.1,0.1l0.1,0.1l0.2,0.2l0.1,0.1l0.1,0.1l0.1,0.1l0.1,0.1l0.2,0.2l0.2,0.2
		l0.3,0.4l0.3,0.4l0.3,0.4l0.3,0.5l0.2,0.5l0.2,0.5l0.4,1.1l0.1,0.3l0.1,0.3l0.2,0.5l0.1,0.2l0.1,0.3l0.1,0.3l0.1,0.3l0.1,0.6
		l0.1,0.6l0.1,0.6l0.1,0.6l0.3,1.2l0.1,0.6l0.1,0.6l0.1,0.6l0.1,0.6l0,0.7l0,0.7h0.1l0.1,0l0.2,0l0.2,0l0.1,0l0.1,0l0.1,0l0.2,0
		l0.1,0h0.1v-0.4l0-0.4l0-0.4l0-0.5l0-0.5l0-0.5l-0.1-1l-0.2-1.1l-0.2-1.1l-0.3-1.1l-0.3-1.1l-0.3-1.1l-0.4-1.1l-0.4-1l-0.4-1
		l-0.2-0.5l-0.2-0.4l-0.2-0.4l-0.3-0.4l-0.3-0.4l-0.3-0.4l-0.3-0.3l-0.3-0.3l-0.2-0.2l-0.2-0.2l-0.2-0.2l-0.2-0.2l-0.1-0.2l-0.1-0.2
		l-0.1-0.2l-0.1-0.1l-0.1-0.2l-0.3-0.5l-0.2-0.4l-0.2-0.4l-0.2-0.4l-0.2-0.4l-0.2-0.4l-0.4-0.7l-0.4-0.6l-0.4-0.6l-0.3-0.5l-0.3-0.5
		l-0.7-1l-0.4-0.5l-0.4-0.6l-0.4-0.6l-0.2-0.3l-0.2-0.3l-0.3-0.4l-0.3-0.4l-0.3-0.4l-0.3-0.4l-0.4-0.6l-0.4-0.7l-0.4-0.7l-0.4-0.7
		l-0.4-0.7l-0.4-0.7l-0.4-0.7l-0.4-0.8l-0.4-0.8l-0.4-0.8l-0.5-0.8l-0.5-0.9l-0.6-0.9l-0.6-0.9l-0.7-0.9l-0.4-0.5l-0.4-0.5l-4.5-4.1
		l-0.3-0.2l-0.4-0.2l-0.4-0.2l-0.4-0.3l-0.5-0.3l-0.5-0.3l-0.5-0.3l-0.5-0.3l-1.1-0.6l-1.2-0.7l-2.4-1.4l-1.2-0.7l-1.1-0.7l-0.5-0.3
		l-0.5-0.3l-0.5-0.3l-0.5-0.3l-0.4-0.3l-0.4-0.2l-0.4-0.2l-0.3-0.2l-0.3-0.2l-0.3-0.2l-0.2-0.1l-0.2-0.1l-0.1-0.1l-0.9-0.7l-0.9-0.7
		l-1.8-1.4l-1.9-1.3l-1.9-1.3l-1.9-1.3l-1.9-1.3l-1.9-1.3l-2-1.3l-2-1.3l-1-0.6l-1-0.6l-1-0.6l-1-0.5l-1.1-0.5l-1.1-0.5l-0.4-0.2
		l-0.3-0.1l-0.3-0.1l-0.3-0.1l-0.2-0.1l-0.2-0.1l-0.2-0.1l-0.2,0l-0.3-0.1l-0.3,0l-0.5-0.1l-0.3-0.1l-0.1,0l-0.2-0.1l-0.2-0.1
		l-0.2-0.1l-0.2-0.1l-0.3-0.1l-0.3-0.1l-0.3-0.1l-0.4-0.2l-0.4-0.2l-0.4-0.2l-0.5-0.2l-0.5-0.3l-0.6-0.3l-0.3-0.2l-0.3-0.2l-0.3-0.2
		l-0.3-0.1l-0.5-0.3l-0.4-0.3l-0.4-0.2l-0.4-0.2l-0.7-0.4l-0.4-0.2l-0.4-0.2l-0.4-0.2l-0.4-0.2l-0.5-0.2l-0.3-0.1l-0.3-0.1l-0.3-0.1
		l-0.3-0.1l-0.3-0.1l-0.4-0.1l-0.5-0.2l-0.5-0.2l-0.5-0.2l-0.5-0.2l-0.5-0.2l-0.5-0.2l-0.3-0.1l-0.3-0.1l-0.3-0.1l-0.3-0.1l-0.7-0.1
		l-0.7,0h-0.7l-0.7,0l-1.4,0h-0.7l-0.7,0l-1.3-0.1l-1.4,0l-1.4,0h-1.5l-1.6,0l-1.6,0l-3.2-0.1l-3.2-0.1l-1.6,0l-1.6,0l-1.4,0l-1.4,0
		l-1.4,0.1l-1.4,0.1l-1.4,0.1l-1.3,0.1l-2.6,0.3L109,12.9l-0.7,0.1l-0.7,0.1l-1.4,0h-1.4l-0.7,0l-0.7,0l-0.2,0l-0.2,0l-0.3,0
		l-0.3,0.1l-0.4,0.1l-0.4,0.1l-0.4,0.1l-0.4,0.1l-0.5,0.1L99.9,14l-0.5,0.1l-0.5,0.2l-1.1,0.3L96.6,15l-1.1,0.4l-1.1,0.4l-1,0.3
		l-0.5,0.2l-0.5,0.2l-0.4,0.1l-0.4,0.1l-0.4,0.1l-0.4,0.1L90.4,17l-0.3,0.1l-0.2,0.1l-0.2,0.1l-0.6,0.2l-0.7,0.3l-0.7,0.3l-0.7,0.3
		l-1.5,0.7l-1.5,0.7l-0.7,0.3l-0.7,0.3l-0.7,0.3l-0.6,0.3l-0.6,0.2l-0.3,0.1l-0.2,0.1l-0.2,0.1L80,21.7l-0.2,0.1l-0.2,0L79.1,22
		l-0.6,0.2L78,22.3l-0.5,0.2l-2.1,0.8l-1.1,0.4l-1.1,0.4l-0.1,0l-0.1,0l-0.1,0l-0.1,0l-0.1,0l0,0l0,0l-0.1,0l-0.1,0.1l-0.1,0.1
		l-0.1,0.1l-2.6,1.8L69,26.8l-0.6,0.4l-0.7,0.4L67,28l-0.8,0.4l-0.8,0.4l-1.6,0.9L63,30.2l-0.8,0.4l-0.8,0.4l-0.8,0.4l-0.8,0.3
		l-0.7,0.3l-0.7,0.2l-0.7,0.2l-0.2,0.1l-0.2,0.1l-0.4,0.2L56.4,33L56,33.3l-0.4,0.3L55.1,34l-0.4,0.3l-0.4,0.3L42.9,45.3l-0.1,0.1
		l-0.1,0.1l-0.1,0.2l-0.1,0.2L42.3,46l-0.1,0.1L29.1,62.5l-0.3,0.4l-0.3,0.4l-0.3,0.4l-0.3,0.4l-0.7,0.9L26.6,66L25.9,67l-0.6,0.9
		L25,68.3l-0.3,0.4l-0.2,0.4l-0.2,0.4l0,0.1l0,0.1l-0.1,0.1L24.1,70l-0.2,0.3l-0.2,0.4l-0.2,0.4l-0.2,0.5l-0.2,0.5l-0.2,0.6
		l-0.3,0.6l-0.3,0.7L22,74.8l-0.3,0.7L21.1,77l-0.6,1.5l-0.6,1.5l-0.3,0.7l-0.3,0.7L19.1,82l-0.3,0.6l-0.2,0.6l-0.2,0.6l-0.2,0.5
		L18,84.8l-0.2,0.4l-0.1,0.4l-0.1,0.1l0,0.1l0,0.1l0,0.1l0,0.1L17.5,86.3L17.5,86.3L17.5,86.3z"/>
	<path fill="#604E42" d="M76.3,29l0.4,1.1L77,30l0.4-0.1l0.4-0.2l0.4-0.2l0.5-0.2l0.5-0.2l0.5-0.2l0.5-0.3l1-0.6l1.1-0.6l2.1-1.3
		l1-0.7l1-0.6l0.5-0.3l0.5-0.3l0.4-0.3l0.4-0.3l0.4-0.2l0.4-0.2l0.3-0.2l0.3-0.2l0.3-0.1l0.2-0.1l0.2-0.1l0.2,0l1.1-0.2l1.1-0.2
		l2.3-0.4l1.1-0.2l1.1-0.2l1.1-0.3l1.1-0.3l0.2-0.1l0.2-0.1l0.5-0.2l0.2-0.1l0.2-0.1l0.2,0l0.2,0l7.2,0l7.3,0l7.3,0l3.6,0l3.6,0.1
		h0.2l0.2,0l0.2,0l0.1,0l0.2,0l0.8-0.1l0.7-0.1l1.4-0.2l0.7-0.1l0.7,0l0.7,0l0.8,0l0.2,0l0.2,0l0.3,0l0.2,0l0.2,0l0.2,0l0.2,0l0.2,0
		l0.1,0l0.2,0l0.7,0.2l0.7,0.2l0.7,0.2l0.7,0.1l0.7,0.1l0.7,0.1l0.7,0l0.4,0h0.4l0.7,0l0.7-0.1l0.7-0.1l0.7-0.1l0.7-0.1l0.7-0.1
		l0.7-0.1l0.8,0h0.1l0.2,0l0.4,0l0.4,0.1l0.5,0.1l0.5,0.1l0.6,0.1l0.6,0.1l0.6,0.1l1.2,0.3l0.6,0.2l0.6,0.1l0.6,0.1l0.5,0.1l0.5,0.1
		l0.4,0.1l0.3,0l0.4,0.1l0.7,0.2l0.7,0.3l0.7,0.3l0.7,0.3l0.6,0.4l0.6,0.4l0.6,0.4l12.2,7l0.2,0.2l0.2,0.2L177,32l0.2,0.2l0.2,0.2
		l0.1,0.1l0.1,0.1l0.2,0.1l0.2,0.1l0.2,0.1l0.3,0.1l0.1,0.1l0.2,0.1l0.2,0.1l0.2,0.1l0.5,0.2l0.6,0.2l0.5,0.2l0.2,0.1l0.2,0.1
		l0.2,0.1l0.2,0.1l0.1,0.1l0.1,0.1l0.1,0.2l0.1,0.1l0.1,0.3l0.1,0.2l0.1,0.3l0.1,0.1l0.1,0.2l0.1,0.2l0.2,0.2l0.2,0.2l0.3,0.2
		l0.2,0.1l0.2,0.1l0.2,0.1l0.2,0.1l0.3,0.2l0.3,0.1l0.2,0.1l0.2,0.1l0.4,0.2l0.4,0.2l0.3,0.2l0.3,0.1l0.5,0.3l0.3,0.1l0.3,0.2
		l0.4,0.2l0.2,0.1l0.2,0.1l0.2,0.1l0.2,0.2l0.2,0.2l0.3,0.2l0.3,0.2l0.3,0.2l0.3,0.3l0.4,0.3l0.2,0.2l0.2,0.2l0.4,0.3l0.4,0.2
		l0.4,0.2l0.4,0.2l0.4,0.2l0.4,0.2L194,43l0.2,0.1l0.4,0.2l0.4,0.2l0.4,0.3l0.4,0.3l0.3,0.3l0.3,0.3l0.6,0.7l0.6,0.7l0.6,0.7
		l0.6,0.7l0.6,0.7l0.4,0.4l0.4,0.4l0.3,0.3l0.3,0.3l0.2,0.2l0.2,0.2l0.1,0.1l0.1,0.1l0.1,0.1l0,0l0,0l0,0l0,0v0l0,0.1l0,0.1l0,0.1
		v0.2V51v0.1l-0.2,0l-0.3,0.1l-0.3,0.1l-0.3,0.1l-0.3,0.1l-0.2,0.2l-0.1,0.1l-0.1,0.1l0,0.1l0,0.1l0,0.4l0.1,0.4l0.2,0.4l0.2,0.4
		l0.2,0.4l0.3,0.4l0.3,0.4l0.3,0.4l0.7,0.8l0.7,0.8l0.3,0.4l0.3,0.4l0.3,0.3l0.2,0.3l1.4,2.1l0.4,0.5l0.4,0.5l0.7,0.9l0.8,0.9
		l0.4,0.4l0.4,0.5l0.5,0.5l0.5,0.5l0.5,0.6l0.5,0.6l0.5,0.6l0.5,0.6l0.5,0.7l0.5,0.7l0.5,0.7l0.5,0.7l0.9,1.5l0.9,1.5l0.8,1.6
		l0.8,1.6l0.4,0.8l0.3,0.8l0.3,0.8l0.3,0.8l0.3,0.8l0.3,0.8l0.2,0.8l0.2,0.8l0.2,0.8l0.2,0.8l0.1,0.8l0.1,0.7l0.1,0.7l0,0.7l0.5,0
		l0.5,0.1l0.4,0.1l0.4,0.1l0.2,0l0.2,0l0.1,0h0.1l0.1,0l0.1,0l0.1-0.1l0-0.1l0-0.1v-0.2l0-0.2l0-0.3l-0.1-0.3l-0.1-0.3l-0.1-0.4
		l-0.2-0.4L222,85l-0.2-0.6l-0.1-0.3l-0.1-0.3l-0.2-0.3l-0.2-0.4l-0.2-0.4l-0.2-0.4l-0.2-0.4l-0.2-0.4l-0.2-0.4l-0.2-0.5l-0.2-0.5
		l-0.3-0.5l-0.2-0.3l-0.2-0.3l-0.3-0.6l-0.3-0.6l-0.2-0.3l-0.2-0.3l-1.8-3.2l-1.8-3.2l-0.9-1.6l-0.9-1.6l-1-1.5l-1-1.5l-0.1-0.2
		l-0.1-0.1l-0.1-0.1l-0.1-0.1l-0.1-0.1l-0.1-0.1l-0.1-0.1l-0.1-0.1l-1.7-1.9l-0.2-0.2l-0.2-0.2l-0.2-0.2l-0.2-0.3l-2.5-2.9l-0.4-0.5
		l-0.4-0.5l-0.3-0.5l-0.3-0.4l-0.2-0.4l-0.2-0.4l-0.2-0.3l-0.1-0.3l-0.1-0.3l-0.1-0.3l-0.1-0.2l0-0.2l0-0.2l0-0.2l0-0.2l0-0.2
		l0.1-0.2l0.1-0.1l0.2-0.3l0.2-0.3l0.3-0.3l0.3-0.3l0.3-0.3l0.3-0.3l0.3-0.4l0.6,0.2l0.7,0.2l0.7,0.3l0.7,0.4l0.7,0.4l0.7,0.4
		l0.7,0.5l0.7,0.5l0.6,0.5l0.6,0.5l0.6,0.5l0.6,0.5l0.5,0.5l0.5,0.5l0.5,0.5l0.4,0.4l0.3,0.3l0.3,0.3l0.3,0.3l0.3,0.4l0.6,0.7
		l0.6,0.8l0.6,0.8l0.3,0.4l0.3,0.4l0.3,0.4l0.2,0.4l0.2,0.4l0.2,0.3l1.7,4.5l0.3,0.8l0.3,0.7l0.6,1.4l0.6,1.4l0.6,1.5l0.3,0.7
		l0.3,0.6l0.4,0.7l0.4,0.6l0.4,0.6l0.4,0.5l0.4,0.5l0.4,0.5l0.8,0.9l0.4,0.5l0.4,0.5l0.3,0.5L228,81l0.3,0.6l0.3,0.6l0.1,0.4
		l0.1,0.4l0.1,0.4l0.1,0.4l0.1,0.4l0.1,0.4l0.2,0.8l0.1,0.4l0.1,0.4l0.1,0.4l0.2,0.3l0.1,0.1l0.1,0.1l0.1,0.1l0.1,0.1l0.1,0.1
		l0.1,0.1l0.1,0l0.2,0l0.2,0.1l0.1,0l0.1,0.1l0.5,0.2l0.2,0.1l0.2,0l0.1,0l0.1,0l0.1,0l0.1-0.1l0-0.1l0-0.1l0-0.1l0-0.2l0-0.3l0-0.3
		l-0.1-0.6l-0.1-0.6l-0.2-0.6l-0.2-0.6l-0.3-0.7l-0.3-0.7l-0.3-0.7l-0.4-0.7l-0.4-0.6l-0.4-0.6l-0.4-0.6l-0.4-0.6l-0.4-0.5l-0.4-0.5
		L228,78l-0.1-0.1l-0.1-0.2l-0.1-0.2l-0.1-0.2l-0.2-0.2l-0.2-0.3l-0.2-0.3l-0.2-0.3l-0.4-0.6L226,75l-0.4-0.7l-0.4-0.7l-0.4-0.7
		l-0.4-0.7l-0.4-0.7l-0.4-0.6l-0.2-0.3l-0.2-0.3l-0.1-0.3l-0.1-0.2l-0.1-0.2l-0.1-0.2l-0.1-0.2l-0.1-0.1l0-0.1l0-0.2l0-0.2l0-0.2
		l0-0.2l0-0.3l-0.1-0.6l-0.1-0.6l-0.1-0.6l0-0.3l0-0.3l0-0.2l0-0.2l-0.2-0.9l-0.3-0.8l-0.3-0.8l-0.4-0.8l-0.4-0.8l-0.4-0.7l-0.4-0.7
		l-0.5-0.7l-0.5-0.7l-0.5-0.7l-0.6-0.6l-0.6-0.6l-0.6-0.6l-0.6-0.6l-0.6-0.6l-0.6-0.6l-0.5-0.4l-0.5-0.4l-0.5-0.4l-0.5-0.4l-0.5-0.4
		l-0.6-0.4l-1.1-0.6l-1.2-0.6l-1.2-0.5l-1.3-0.5l-1.3-0.4l-0.8-0.3l-0.8-0.3L203,48l-0.7-0.4l-0.7-0.4l-0.7-0.5l-0.7-0.5l-0.7-0.5
		l-1.4-1.1l-1.4-1.1l-0.7-0.5l-0.7-0.5l-0.7-0.5l-0.7-0.5l-1.7-1.2l-1.7-1.2l-3.5-2.4l-3.5-2.4l-1.7-1.2l-1.7-1.2l-0.7-0.5l-0.7-0.5
		l-0.7-0.5l-0.7-0.4l-1.5-0.8l-1.5-0.8l-3.1-1.7l-0.5-0.3l-0.5-0.3l-0.5-0.3l-0.5-0.3l-1.1-0.6l-1.2-0.6l-2.4-1.2l-1.2-0.7l-1.1-0.7
		l-0.7-0.4l-0.7-0.4l-0.2-0.1l-0.2-0.1l-0.5-0.1l-0.5-0.1l-0.5-0.1l-0.4-0.2l-0.4-0.2l-0.8-0.4l-0.9-0.4l-0.9-0.4l-1-0.3l-0.5-0.1
		l-0.5-0.1l-0.5-0.1l-0.5-0.1l-0.5,0l-0.5,0l-0.9,0l-0.8,0.1l-0.8,0.1l-0.8,0.1l-0.8,0.1l-0.8,0.1l-0.8,0.1l-0.9,0l-0.4,0l-0.4,0
		l-0.8-0.1l-0.8-0.1l-0.8-0.1l-0.8-0.1l-0.8-0.1l-0.4,0H139l-0.4,0l-0.4,0l-7,0.4l-0.9,0l-0.9,0l-0.9-0.1l-0.9-0.1L126,18l-0.9-0.1
		l-0.9,0l-10.4-0.2h-3h-0.5l-0.5,0l-0.5,0l-0.5,0l-1.1,0.1l-1.2,0.1l-1.2,0.1l-1.1,0.1l-0.5,0l-0.5,0l-0.5,0l-0.5,0l-0.6,0l-0.6,0
		l-1.3,0.1l-1.3,0.2l-1.4,0.2l-1.4,0.3l-1.3,0.3l-1.3,0.3l-0.6,0.2L91.7,20l-0.5,0.2l-0.5,0.2l-0.5,0.2l-0.5,0.2L89,21.1l-0.5,0.3
		l-1,0.6l-1,0.6l-1,0.7l-1,0.7l-0.9,0.7l-0.9,0.7l-0.9,0.7l-0.9,0.7l-0.9,0.6L79,27.9l-0.4,0.2l-0.4,0.2l-0.5,0.2l-0.4,0.2l-0.4,0.1
		L76.3,29z"/>
	<path fill="#604E42" d="M75.5,34.7l-0.2,0.4l-0.2,0.4l-0.4,0.7l-0.5,0.6l-0.5,0.6l-0.5,0.5l-0.6,0.5L72,38.8l-0.7,0.5l-3.5,2.5
		l-0.4,0.3l-0.4,0.3l-0.8,0.7l-0.8,0.7l-0.4,0.3l-0.4,0.3l-0.6,0.4l-0.6,0.4l-0.6,0.3L62.2,46l-0.7,0.4l-0.3,0.2l-0.3,0.2l-0.4,0.3
		l-0.4,0.3l-0.4,0.3L59.4,48l-0.2,0.2l-0.3,0.2l-0.3,0.3L58.4,49l-0.6,0.6L57,50.2l-0.6,0.6l-0.6,0.6l-0.3,0.3l-0.2,0.3L55,52.1
		l-0.2,0.2L50.6,57L50,57.8l-0.6,0.8l-0.6,0.8l-0.6,0.9l-0.2,0.4L47.7,61l-0.3,0.7L47,62.4l-0.2,0.4l-0.2,0.4l-0.1,0.1l-0.1,0.1
		l-0.1,0.2l-0.1,0.2L46,63.9L45.9,64l-4.7,7.1l-0.3,0.4L40.6,72L40,72.8l-0.3,0.4l-0.3,0.4l-0.3,0.4l-0.3,0.5l-0.3,0.5l-0.2,0.5
		l-0.2,0.5l-0.3,0.5l-4.1,7.7l-0.1,0.2l-0.1,0.2L33.2,85l-0.2,0.3l-0.2,0.3l-0.1,0.3l-0.1,0.2l-0.1,0.2l0.4,0.7l0.4,0.7l0.3,0
		l0.3-0.1l0.2-0.1l0.2-0.1l0.4-0.2l0.4-0.2l0.2-0.1l0.2-0.1l0.1-0.1l0.1-0.1l0.1-0.1l0-0.1l0-0.1l0-0.1l0-0.2L36,86l-0.1-0.3l0-0.2
		l0-0.2l0-0.5l0-0.5l0.1-0.5l0.1-0.5l0.1-0.5l0.1-0.5l0.1-0.5l0.2-0.5l0.4-1l0.4-1l0.5-1l0.5-1l0.6-0.9l0.6-0.9l0.6-0.9l0.6-0.9
		l0.6-0.8l0.6-0.8l0.6-0.8l0.6-0.7l0.2-0.3l0.3-0.3l0.6-0.6l0.5-0.6l0.2-0.3l0.2-0.3l0.4-0.7l0.4-0.7l0.8-1.4l0.4-0.7l0.4-0.7
		l0.4-0.7l0.5-0.7l3.8-4.9l0.5-0.6l0.5-0.6l0.5-0.6l0.5-0.6l0.3-0.3l0.2-0.3l0.2-0.3l0.2-0.3l0.2-0.3l0.2-0.2l0.4-0.4l0.3-0.4
		l0.3-0.4l0.3-0.4l0.3-0.3l0.3-0.3l0.3-0.3l0.4-0.3l0.4-0.3l0.5-0.4l0.3-0.2l0.3-0.2l0.3-0.2l0.3-0.2l0.3-0.2l0.4-0.2l0.7-0.5
		l0.7-0.5l0.7-0.4l0.6-0.4l0.6-0.4l0.6-0.4l1.2-0.8l0.6-0.4l0.6-0.4l0.6-0.5l0.6-0.5l0.6-0.5l0.6-0.6l0.6-0.6l0.7-0.7l0.5-0.5
		l0.5-0.5l0.5-0.4l0.5-0.4l0.9-0.8l0.9-0.8l0.9-0.7l0.9-0.7l0.9-0.6l0.9-0.6l1.9-1.2l0.9-0.6l1-0.6l1-0.6l1-0.6l1.1-0.7l1.1-0.7
		l0.3-0.2l0.3-0.2l0.3-0.2l0.3-0.2l0.4-0.3l0.3-0.2l0.3-0.2l0.3-0.1l0.2-0.1l0.2-0.1l0.2-0.1l0.2,0l0.2,0l0.3,0l0.3,0l0.3,0l0.4,0
		l0.4,0l0.5,0l0.3,0l0.3,0l15.2-2.6l1.4-0.2l1.4-0.2l1.5-0.1l1.5-0.1l1.5-0.1l1.5,0l1.5,0l1.5,0l0.4,0l0.4,0l0.4,0.1l0.4,0.1l0.4,0
		l0.4,0.1l0.4,0l0.4,0l0.8,0l0.8-0.1l0.7-0.1l0.7-0.1l0.7-0.1l0.7-0.1l0.7-0.1l0.8,0l0.4,0l0.3,0l0.3,0.1l0.3,0.1l0.3,0.1l0.3,0
		l0.3,0l0.4,0l1.1,0l1.1,0l2.1,0.1l2.1,0.2l1,0.1l1,0.1l2.4,0.3l2.3,0.3l4.7,0.7l4.6,0.7l4.7,0.7l0.1,0l0.2,0l0.2,0.1l0.3,0.1
		l0.3,0.1l0.3,0.1l0.4,0.1l0.4,0.1l0.4,0.2l0.4,0.2l0.4,0.2l0.4,0.2l0.9,0.4l1,0.4l1,0.4l1,0.4l0.9,0.4l0.4,0.2l0.4,0.2l0.4,0.2
		l0.4,0.2l0.4,0.2l0.3,0.1l0.3,0.1l0.3,0.1l0.2,0.1l0.2,0.1l0.5,0.2l0.5,0.3l0.5,0.3l0.5,0.3l1.1,0.6l1.1,0.7l1.1,0.7l1,0.7l0.5,0.4
		l0.5,0.4l0.5,0.4l0.4,0.4l0.2,0.2l0.2,0.2l0.4,0.4l0.1,0.1l0.1,0.1l0.1,0.1l0.1,0.1l0.1,0.1l0,0.1l0,0v0l0,0l0,0l-0.1-0.1l-0.1-0.1
		l0,0l0,0l0,0l0,0l0.1,0.1l0.1,0.1l0.1,0.1l0,0l0,0l0,0l0,0l0,0l0,0l0.1,0l0.2,0.1l0.2,0.1l0.3,0.1l0.1,0.1l0.2,0.1l1.7,1.3l0.1,0.1
		l0.1,0.1l0.2,0.2l0.2,0.2l0.1,0.1l0.1,0.1l0.6,0.6l0.6,0.6l0.7,0.6l0.7,0.7l0.7,0.7l0.8,0.7l0.8,0.7l0.8,0.7l0.8,0.6l0.8,0.6
		l0.8,0.6l0.8,0.5l0.8,0.5l0.8,0.4l0.8,0.3l0.4,0.1l0.4,0.1l0.2,0.1l0.2,0l0.1,0l0.1,0l0.2,0l0.1,0l0.1,0l0.5-0.3l0.1,0l0.1,0l0.1,0
		l0.1,0l0.1,0l0.1,0l0-0.2l0-0.2l-0.1-0.3l-0.1-0.2l-0.1-0.2l-0.1-0.2l-0.2-0.2l-0.2-0.2l-0.1-0.1L197,49l-0.6-0.4l-0.6-0.4
		l-0.6-0.3l-0.6-0.3l-1.1-0.6l-1.1-0.6l-0.6-0.3l-0.6-0.3l-0.6-0.3l-0.6-0.4l-0.6-0.4l-0.7-0.4l-0.7-0.5l-0.7-0.5l-6.5-5.7l-0.3-0.3
		l-0.3-0.3l-0.6-0.4l-0.5-0.4l-0.5-0.4l-0.5-0.3l-0.6-0.3l-0.6-0.3l-0.3-0.1l-0.4-0.1l-0.2-0.1l-0.2-0.1l-0.2-0.2l-0.2-0.2l-0.4-0.4
		l-0.4-0.4l-0.2-0.2l-0.2-0.2l-0.2-0.2l-0.1-0.1l-0.1-0.1l-0.1-0.1l-0.2-0.2l-0.2-0.2l-0.1-0.1l-0.2-0.1l-0.2-0.1l-0.2-0.1l-0.3-0.2
		l-0.3-0.2l-0.1-0.1l-0.1-0.1l-0.2-0.1l-0.2-0.1l-0.1-0.1l-0.1-0.1l-1.2-0.6l-1.2-0.5l-1.2-0.5l-1.3-0.5l-1.3-0.4l-1.3-0.4l-1.3-0.4
		l-1.3-0.4l-2.2-0.5l-2.2-0.5l-2.2-0.5L152,25l-4.5-0.8l-2.2-0.4l-2.2-0.4l-0.7-0.1l-0.7-0.2l-0.3-0.1l-0.3-0.1l-0.3-0.1l-0.3,0
		h-0.1h-0.1h-0.3l-0.4,0l-0.4,0l-0.8,0l-0.4,0l-0.3,0h-0.4l-0.4,0l-0.8,0h-0.8l-0.4,0l-0.4,0l-0.3,0l-0.4,0l-0.4,0l-0.4,0h-0.4
		l-0.4,0l-0.4-0.1l-0.3-0.1l-0.6-0.2l-0.6-0.2l-0.6-0.1l-0.6-0.1l-0.6,0l-0.6,0l-0.6,0l-0.6,0.1l-1.3,0.2l-1.3,0.2l-1.3,0.2
		l-0.6,0.1l-0.6,0l-1.1,0l-1.1,0l-1,0l-1,0l-0.9,0l-0.9,0.1l-1.7,0.1l-1.7,0.2l-0.9,0.1l-0.9,0.1l-0.9,0.1l-1,0.1l-1,0.1l-1.1,0.1
		l-0.9,0.1l-0.9,0.1l-1.9,0.3l-1.9,0.2l-0.9,0.1l-0.9,0.1l-1,0.1l-1,0.1l-1,0.1l-0.5,0l-0.4,0l-0.3,0l-0.3,0l-0.3,0l-0.3,0h-0.2
		h-0.2l-0.4,0l-0.3,0l-0.3,0l-0.3,0h-0.2l-0.3,0l-0.3,0.1l-0.3,0.1l-0.2,0.1L91,26l-0.2,0.1l-0.2,0.1l-0.2,0.1l-0.3,0.1l-0.3,0.2
		l-0.3,0.2L89.1,27l-0.4,0.2l-4,2.1l-0.5,0.3l-0.5,0.3l-0.5,0.3l-0.4,0.3L82,31.2l-0.4,0.3l-0.5,0.4l-0.6,0.4L80,32.8l-0.6,0.5
		l-0.6,0.4L78.4,34L78,34.1l-0.4,0.2l-0.4,0.1l-0.4,0.1l-0.4,0.1l-0.4,0L75.5,34.7z"/>
	<path fill="#604E42" d="M98.6,47.4v0.3l0,0.3v0.2v0.2l0,0.2l0.1,0.2l0.1,0.2l0.1,0.1l0.2,0.1l0.2,0.1l0.3,0.1l0.2,0l0.2,0l0.2,0
		l0.2,0l0.2,0l0.3,0l0.3,0h0.3l0.4,0h0.4h0.5l0.5,0l0.5,0l0.5,0l1.1-0.1l1.1-0.1l1.1-0.1l1-0.2l0.5-0.1l0.5-0.1l0.4-0.1l0.4-0.1
		l0.4-0.1l0.4-0.1l0.3-0.1l0.2,0l0.1,0L112,48l0.4,0l0.4,0l0.5,0l0.9,0l0.4,0l0.4,0l0.6-0.1l0.6-0.1l0.6-0.1l0.5-0.1l0.5-0.1
		l0.5-0.1l0.9-0.2l0.9-0.2l0.8-0.2l0.8-0.1l0.8-0.1l0.8-0.1l0.8-0.1l0.8-0.1l0.9-0.1l0.5,0l0.5,0l0.5,0l0.5,0l0.6,0l0.6,0l0.6,0h0.6
		l0.7,0l0.7,0.1l0.7,0.1l0.7,0.1l0.7,0.2l0.7,0.2l0.7,0.2l0.6,0.1l0.3,0.1l0.3,0.1l0.4,0.1l0.4,0.1l0.5,0.1l0.5,0.1l0.5,0.1l0.6,0.1
		l0.6,0.1l0.6,0.1l1.3,0.2l1.3,0.3l1.3,0.3l1.3,0.3l1.3,0.3l0.6,0.1l0.6,0.1l0.6,0.1l0.5,0.1l0.5,0.1l0.5,0.1l0.4,0.1l0.4,0.1
		l0.4,0.1l0.3,0.1l0.2,0.1l0.2,0.1l0.3,0.1l0.3,0.1l0.6,0.2l0.6,0.2l0.3,0.1l0.3,0.1l0.5,0.2l0.5,0.2l0.5,0.2l0.5,0.2l0.9,0.4
		l0.8,0.4l0.8,0.4l0.8,0.4l0.7,0.4l0.7,0.4l1.4,0.8l0.7,0.4l0.8,0.4l0.8,0.4l0.8,0.5l0.9,0.5l0.5,0.3l0.5,0.3l1.1,0.7l1.1,0.7
		l0.4,0.3l0.4,0.3l0.4,0.2l0.4,0.2l0.3,0.2l0.3,0.2l0.6,0.4l0.6,0.3l0.5,0.3l1,0.6l0.5,0.3l0.5,0.4l0.5,0.4l0.5,0.4l0.3,0.2l0.3,0.2
		l0.3,0.3l0.3,0.3l0.3,0.3l0.4,0.3l0.4,0.3l0.4,0.4l5.5,4.5l0.4,0.5l0.3,0.5l0.3,0.5l0.3,0.5l0.5,1.1l0.5,1.1l0.5,1.1l0.5,1.1l1,2.2
		l0.5,1.1l0.5,1.1l0.6,1.1l0.6,1.2l0.1,0.2l0.1,0.2l0.3,0.5l0.4,0.5l0.4,0.5l0.4,0.5l0.2,0.2l0.2,0.2L194,87l0.3,0.1l0.3,0.1l0.4,0
		l0-0.5l0-0.4l0.1-0.4l0.1-0.4l0.1-0.3l0.1-0.3l0.2-0.6l0.1-0.3l0.1-0.3l0-0.3l0-0.3l0-0.3l-0.1-0.3l-0.1-0.3l-0.2-0.4l-0.3-0.5
		l-0.3-0.5l-0.3-0.6l-0.3-0.6l-0.5-1.2l-0.3-0.6l-0.3-0.5l-0.3-0.6l-0.3-0.7l-0.3-0.7l-0.3-0.7l-0.7-1.5l-0.8-1.5l-0.4-0.7l-0.4-0.7
		l-0.4-0.7l-0.5-0.6l-0.5-0.6l-0.5-0.5l-0.5-0.5l-0.5-0.4l-0.4-0.3l-0.1-0.1l0,0l0,0l0,0l0,0l-0.2-0.2l-0.2-0.2l-0.4-0.3l-0.5-0.4
		l-0.5-0.4l-0.6-0.4l-0.6-0.4l-0.6-0.4l-0.6-0.4l-1.3-0.7l-0.6-0.3l-0.6-0.3l-0.6-0.3l-0.5-0.3l-0.5-0.2l-0.4-0.2l-5.9-3.2l-0.7-0.4
		l-0.7-0.4l-0.7-0.4l-0.7-0.4l-0.4-0.2L168,56l-0.4-0.3l-0.4-0.3l-0.9-0.6l-0.9-0.6l-0.9-0.6l-0.9-0.6l-0.4-0.3l-0.4-0.3l-0.4-0.3
		l-0.3-0.3l-0.3-0.2l-0.4-0.2l-0.4-0.2l-0.5-0.2l-0.5-0.2l-0.6-0.2l-1.2-0.4l-1.2-0.4l-0.6-0.2l-0.6-0.2l-0.5-0.2l-0.5-0.2l-0.5-0.2
		l-0.4-0.2l-0.5-0.2l-0.6-0.2l-0.6-0.2l-0.6-0.2l-0.7-0.2l-0.7-0.2l-1.4-0.5l-1.4-0.4l-0.7-0.2l-0.7-0.2l-0.6-0.2l-0.6-0.2l-0.6-0.1
		l-0.5-0.1l-0.8-0.2l-0.8-0.1l-1.5-0.3l-1.5-0.2l-1.5-0.2l-1.5-0.1l-0.8-0.1l-0.8,0l-0.8,0l-0.8,0l-0.8,0l-0.9,0h-0.3l-0.3,0h-0.3
		l-0.2,0l-0.2,0l-0.2,0l-0.2,0l-0.2,0l-0.3,0l-0.2,0l-0.4,0l-0.2,0H128l-0.3,0l-0.2,0l-0.2,0l-0.2,0l-0.2,0l-0.2,0l-0.3,0l-0.3,0
		l-0.3,0.1l-0.4,0.1l-0.4,0.1l-0.5,0.1l-0.5,0.1l-0.5,0.1l-0.5,0.1l-0.3,0.1l-0.3,0.1l-0.3,0.1l-0.3,0l-0.4,0.1l-0.4,0.1l-0.3,0.1
		l-0.3,0.1l-0.3,0l-0.3,0l-0.5,0l-0.3,0l-0.3,0h-0.4l-0.4,0h-0.2h-0.2l-0.3,0H117h-0.3l-0.3,0l-0.3,0l-0.4,0l-0.4,0l-0.4,0l-0.9,0.1
		l-1.8,0.1l-0.8,0l-0.4,0h-0.4h-0.4l-0.3,0l-0.3,0l-0.2,0l-0.5,0.1l-0.3,0l-0.3,0l-0.6,0l-0.6,0l-0.6,0l-0.6,0l-0.8,0.1l-0.7,0.1
		l-0.7,0.1l-0.6,0.1l-0.6,0.1l-0.5,0.1l-0.5,0.1l-0.4,0.1l-0.4,0.1l-0.4,0.1l-0.7,0.2l-0.7,0.1l-0.3,0.1L98.6,47.4z"/>
	<path fill="#604E42" d="M51.6,86.9L52,87l0.4,0.1l0.4,0.1l0.4,0.1l0.4,0.1l0.3,0.1l0.3,0.1l0.3,0.1l0.3,0l0.3,0l0.3-0.1l0.2-0.1
		l0.1-0.1l0.1-0.1l0.1-0.1l0.2-0.1l0.1-0.2l0.2-0.2l0.2-0.2l0.2-0.2l0.2-0.3l0.1-0.3l0.1-0.3l0.2-0.6l0.1-0.6l0.1-0.5l0.1-0.6
		l0.1-0.5l0.1-1.1l3.8-9.8l0.1-0.2l0.1-0.2l0.3-0.3l0.3-0.3l0.4-0.3l0.4-0.3l0.5-0.3l0.5-0.3l0.5-0.3l0.9-0.5l0.9-0.5l0.9-0.4
		l0.9-0.5l0.6-0.3l0.6-0.3l0.5-0.3l0.5-0.3l0.5-0.3l0.5-0.3l0.4-0.3l0.4-0.2l0.4-0.2l0.4-0.2l0.7-0.5l0.6-0.5l0.6-0.5l0.5-0.5
		l0.5-0.6l0.5-0.6l0.3-0.3l0.3-0.4l0.3-0.4l0.3-0.4l0.3-0.4l0.3-0.4l0.3-0.5l0.3-0.5l0.4-0.5l0.4-0.6l2.4-3.1l0.3-0.3l0.3-0.3
		l0.7-0.7l0.4-0.4l0.4-0.3l0.4-0.3l0.3-0.3l0.2-0.2l0.2-0.2l0.2-0.1l0.2-0.1l0.1-0.1l0.1-0.1l0.1-0.1l0.1-0.1l0.2-0.1l0.1-0.1l0.1,0
		l0.1,0l0.1,0l0.1,0l0.1,0l0.2,0l0.2,0l0.1,0l0.2,0L88,50l0.2-0.1l0.2-0.1l0.2-0.1l0.3-0.1l0.3-0.1l0.3-0.1l0.3-0.2l0.7-0.4l0.7-0.4
		l0.7-0.4l0.6-0.4l0.3-0.2l0.3-0.2l0.3-0.2l0.2-0.2l0.2-0.2l0.2-0.2l0.2-0.2l0.1-0.2l0.1-0.2l0.1-0.2l0-0.3l0-0.2v-0.2L94.1,45
		l-0.5,0.1L93,45.2l-0.5,0.2l-0.5,0.2l-0.5,0.2l-0.5,0.2l-0.4,0.2L90,46.3l-0.5,0.2l-0.4,0.2l-0.4,0.2L88.3,47l-0.4,0.1l-0.4,0.1
		l-0.3,0.1l-0.6,0.2l-0.6,0.2L85.5,48L85,48.2l-0.5,0.2L84,48.7L83.5,49l-0.3,0.2l-0.3,0.2l-0.3,0.2l-0.3,0.2L82,50.1l-0.3,0.3
		l-0.3,0.3L81,51l-0.4,0.4l-0.4,0.4l-0.3,0.3l-0.3,0.3l-0.2,0.3l-0.2,0.3L79,53.2l-0.2,0.2l-0.3,0.5l-0.2,0.4l-0.2,0.4L78,55.2
		l-0.2,0.4l-0.3,0.4l-0.2,0.2l-0.2,0.2L77,56.8L76.8,57l-0.2,0.3l-0.3,0.3L76,57.9l-0.3,0.3l-0.4,0.3l-0.4,0.3l-0.4,0.3L74,59.5
		l-0.5,0.4l-0.6,0.4l-1.1,0.7l-1.1,0.6l-1,0.6l-1,0.6l-1,0.6l-1,0.6l-1,0.6l-0.9,0.6l-0.9,0.7l-0.9,0.7l-0.9,0.8l-0.9,0.8l-0.4,0.4
		L60.4,69L60,69.5L59.6,70l-0.4,0.5L58.8,71l-0.4,0.6l-0.4,0.6l-0.3,0.4L57.6,73l-0.5,0.8l-0.5,0.8L56.4,75l-0.3,0.4L56,75.7
		l-0.1,0.2l-0.1,0.2l-0.1,0.2l-0.1,0.2l-0.1,0.1l-0.1,0.2L55.2,77l-0.1,0.1l0,0.1l0,0.1l0,0.2l0,0.1l0,0.2l0,0.2l0,0.1l0,0.1l0,0.2
		l0,0.2L54.6,79l-0.1,0.2l-2.2,5.7l-0.1,0.2l-0.1,0.3l-0.2,0.5l-0.1,0.3l-0.1,0.3l-0.1,0.3L51.6,86.9z"/>
	<path fill="#604E42" d="M159.2,47.2l0.4,0.3l0.4,0.3l0.3,0.3l0.3,0.2l0.6,0.5l0.6,0.4l0.3,0.2l0.4,0.2l0.4,0.2l0.4,0.2l0.5,0.2
		l0.5,0.2l0.6,0.2l0.3,0.1l0.3,0.1l0.4,0.1l0.3,0.1l0.3,0.1l0.3,0.1l0.3,0.1l0.2,0.1l0.2,0l0.2,0l0.3,0.1l0.3,0l0.3,0l0.2,0l0.4,0.1
		l0.2,0.1l0.3,0.1l0.3,0.1l0.2,0.1l0.2,0.1l0.2,0.1l0.2,0.1l0.2,0.1l0.3,0.2l0.2,0.1l0.2,0.1l0.4,0.2l0.4,0.2l0.2,0.1l0.2,0.1
		l0.3,0.2l0.4,0.2l0.4,0.2l0.4,0.3l0.4,0.3l0.5,0.3l0.5,0.3l0.5,0.3l0.5,0.3l0.6,0.3l1.1,0.7l2.3,1.5l1.2,0.7l1.1,0.7l0.5,0.3
		l0.5,0.3l0.5,0.3l0.5,0.3l0.4,0.3l0.4,0.3l0.4,0.3l0.3,0.2l0.3,0.2l0.3,0.2l0.2,0.2l0.2,0.2l0.2,0.2l0.2,0.2l0.3,0.3l0.3,0.2
		l0.2,0.2l0.2,0.2l0.2,0.2l0.1,0.2l0.1,0.1l0.3,0.3l0.1,0.2l0.1,0.2l0.2,0.2l0.2,0.2l0.2,0.2l0.3,0.3l0.8,0.9l0.8,0.9l0.8,0.9l0.7,1
		l0.7,1l0.7,1.1l0.6,1.1l0.6,1.1l0.5,1.1l0.5,1.2l0.4,1.2l0.3,1.2l0.3,1.2l0.2,1.2l0.2,1.2l0.1,1.2l0,0.4l0,0.4l0,0.3l0,0.3l0,0.3
		l0.1,0.3l0.1,0.2l0.1,0.2l0.1,0.2l0.2,0.2l0.2,0.1l0.2,0.1l0.3,0.1l0.3,0.1l0.4,0l0.4,0l0.1,0l0.1,0l0.3-0.1l0.3-0.1l0.3-0.1
		l0.3-0.2l0.2-0.2l0.1-0.1l0.1-0.1l0-0.1l0-0.1l0-0.2l0-0.2l0-0.3l0-0.3l-0.1-0.6l-0.2-0.6l-0.2-0.6l-0.2-0.6l-0.1-0.3l-0.1-0.3
		l-0.1-0.2l0-0.2l0-0.2l0-0.2l0-0.2l0-0.2l0-0.3l0-0.3l0-0.6l0-0.7l-0.1-0.7l-0.1-0.8l-0.1-0.8l-0.2-0.8l-0.2-0.9l-0.3-0.9l-0.2-0.5
		l-0.2-0.5l-0.2-0.5l-0.2-0.5l-0.2-0.5l-0.3-0.5l-0.3-0.5l-0.3-0.5l-0.4-0.5l-0.4-0.5l-0.4-0.4l-0.3-0.4l-0.3-0.3l-0.3-0.3l-0.2-0.3
		l-0.2-0.2l-0.2-0.2l-0.2-0.2l-0.4-0.4l-0.2-0.2l-0.2-0.2l-0.2-0.2l-0.3-0.2l-0.3-0.3l-0.3-0.3l-5.9-4.8l-0.8-0.7l-0.8-0.7l-0.8-0.6
		l-0.7-0.6l-0.7-0.5l-0.7-0.5l-0.6-0.5l-0.6-0.5l-0.6-0.4l-0.6-0.4l-0.6-0.4l-0.6-0.4l-1.1-0.7l-1.1-0.7l-1.1-0.6l-1.1-0.6l-0.6-0.3
		l-0.6-0.3l-0.6-0.3l-0.7-0.3l-0.7-0.3l-0.7-0.4l-0.8-0.4l-0.8-0.4l-0.8-0.4l-0.9-0.4l-0.9-0.5l-1-0.5l-5.2-2.7l-0.3-0.1L162,45
		l-0.3-0.1l-0.3,0h-0.3l-0.3,0l-0.4,0H160l0,0.3l-0.1,0.3l-0.1,0.3l-0.1,0.3l-0.3,0.6l-0.1,0.3L159.2,47.2z"/>
	<path fill="#604E42" d="M102.8,82.5l0.1,0.1l0.1,0.1l0.1,0.1l0.1,0.1l0.2,0.1l0.2,0l0.4,0l0.4,0l0.5,0l0.5-0.1l0.6-0.1l0.6-0.1
		l0.6-0.1l0.6-0.1l0.7-0.2l1.3-0.3l1.4-0.3l0.7-0.2l0.7-0.1l0.6-0.1l0.6-0.1l0.6-0.1l0.6-0.1l0.5,0l0.5,0l0.5,0.1l0.4,0.1l0.2,0.1
		l0.2,0.1l0.2,0.1l0.1,0.1l0.1,0.1l0.1,0.1l0.1,0.2l0.1,0.2l0.1,0.2l0,0.2l0,0.2l0,0.2l-16.8,2.5l-0.4,0l-0.3,0l-0.3,0l-0.2,0.1
		l-0.2,0.1l-0.2,0.1L99.7,86l-0.1,0.1l-0.1,0.1l0,0.2l0.4,0.1l0.4,0l0.5,0l0.5,0l0.5,0l0.6,0l1.2-0.1l1.2-0.1l0.6-0.1l0.6,0l0.6,0
		l0.5,0l0.5,0l0.4,0l0.8,0l0.8,0l1.5-0.1l1.5-0.1l1.5-0.1l0.8-0.1l0.8-0.1l0.8-0.1l0.9-0.1l0.9,0l0.9,0l1,0l1,0h1.1l1.1,0h1.1l1.1,0
		l1.1,0l1.1,0.1l1.1,0.1l1,0.2l0.3,0.1l0.3,0.1l0.5,0.1l0.4,0.2l0.4,0.2l0.4,0.1l0.4,0.1l0.2,0.1l0.2,0.1l0.3,0l0.3,0l2.1,0.3l1,0.1
		l1.1,0.1l4.3,0.6l0.1-0.4l0.1-0.4l0-0.2l0-0.2l0-0.2l-0.1-0.2l-0.1-0.1l-0.2-0.1l-0.1-0.1l-0.1-0.1l-0.2-0.1l-0.2-0.1l-0.2-0.1
		l-0.2-0.1l-0.3-0.1l-0.3-0.1l-0.3-0.1l-0.3-0.1l-0.4-0.1l-0.4-0.1l-1.3-0.2l-1.3-0.1l-1.3-0.1l-0.6,0l-0.6,0l-0.6,0l-0.5,0l-0.5,0
		l-0.5,0l-0.4,0l-0.4,0l-0.3,0l-0.3,0l-1-0.2l-1-0.2l-1-0.3l-0.9-0.3l-0.4-0.1l-0.3-0.1l-0.3-0.1l-0.2,0l-0.2,0l-0.1-0.1l-0.1,0
		l-0.1-0.1l-0.1-0.1l-0.1-0.1l-0.1-0.1l-0.1-0.2l-0.1-0.2l-0.1-0.2l-0.1-0.3l-0.2-0.3l-0.4-0.7l-0.4-0.7l-0.2-0.4l-0.2-0.4l-0.2-0.4
		l-0.1-0.2l-0.1-0.2l-0.2-0.2l-0.2-0.2l-0.3-0.2l-0.3-0.2l-0.3-0.2l-0.4-0.2l-0.4-0.2l-0.4-0.2l-0.4-0.1l-0.4-0.1l-0.4-0.1l-0.5-0.1
		l-0.5-0.1l-0.5-0.1l-0.5-0.1l-0.5,0l-0.5,0l-0.5,0l-0.5,0l-0.5,0l-0.5,0l-0.5,0.1l-0.5,0.1l-0.5,0.1l-0.5,0.2l-0.5,0.2l-0.5,0.2
		l-0.5,0.2l-0.5,0.3l-0.4,0.3l-0.4,0.3l-0.4,0.4l-0.1,0l-0.1,0.1l-0.1,0.1l-0.1,0.1l-0.1,0.1l-0.2,0.1l-0.4,0.3l-0.4,0.3l-0.4,0.3
		l-0.9,0.6l-0.5,0.3l-0.5,0.3l-0.4,0.3l-0.4,0.3l-0.4,0.2l-0.2,0.1l-0.1,0.1l-0.1,0.1l-0.1,0L102.8,82.5L102.8,82.5z"/>
	<path fill="#604E42" d="M-0.2,101.6l0.5,0l0.4,0l0.4,0l0.3,0.1l0.3,0.1L2,102l0.2,0.2l0.2,0.3l0.1,0.3l0,0.2l0,0.2l0,0.2l0,0.2
		l0,0.3l0,0.3l0,0.3l0,0.3l0,0.4v0.4l0,0.4v0.4v0.4v0.5l-0.2,13.5l0,0.3l-0.1,0.3l-0.1,0.2l-0.1,0.2l-0.1,0.2L2,122l-0.2,0.1
		l-0.2,0.1l-0.2,0.1l-0.2,0l-0.5,0.1l-0.5,0h-0.5v0.7h16.7l0-0.1l0-0.1l0-0.1l0-0.1l0.1-0.3l0.1-0.4l0.1-0.4l0.1-0.4l0.3-0.9
		l0.3-0.9l0.1-0.4l0.1-0.4l0.1-0.4l0.1-0.3l0-0.1l0-0.1l0-0.1l0-0.1H18l-0.2,0l-0.2,0l-0.1,0l-0.1,0l-0.1,0.1l-0.1,0.1l-0.1,0.1
		l-0.1,0.1l-0.1,0.2l-0.1,0.2l-0.1,0.3l-0.2,0.3l-0.2,0.3l-0.1,0.2l-0.1,0.2l-0.1,0.2l-0.2,0.2l-0.3,0.4l-0.3,0.3l-0.4,0.3l-0.4,0.3
		l-0.4,0.2l-0.2,0.1l-0.2,0.1l-0.3,0.1l-0.3,0l-0.3,0l-0.3,0H7.1l-0.3,0l-0.2-0.1l-0.2-0.1l-0.2-0.1l-0.1-0.2L6,121.2l-0.1-0.2
		l0-0.3v-8.4h5.5l0.4,0l0.3,0.1l0.3,0.1l0.3,0.1l0.2,0.2l0.2,0.2l0.2,0.2l0.1,0.3l0.1,0.2l0.1,0.2l0.1,0.3l0,0.3l0,0.3l0,0.2l0,0.2
		l0,0.1l0.1,0.1l0.1,0.1l0.1,0l0.2,0l0.1,0h0.1v-7.9l-0.3,0l-0.2,0l-0.1,0.1l-0.1,0.1l-0.1,0.1l0,0.1l0,0.1v0.2l0,0.2v0.2l0,0.2
		l0,0.2l-0.1,0.2l-0.1,0.3l-0.1,0.3l-0.2,0.3l-0.1,0.1l-0.1,0.1l-0.1,0.1l-0.1,0.1l-0.4,0.1l-0.4,0.1l-0.5,0.1l-0.5,0.1l-0.5,0
		l-0.5,0l-1.1,0l-0.5,0H7.7l-0.5,0l-0.5,0l-0.4,0H5.9v-8.7h6.8l0.4,0l0.4,0l0.4,0.1l0.3,0.1l0.3,0.1l0.3,0.2l0.2,0.2l0.2,0.2
		l0.2,0.3l0.1,0.3l0.1,0.3l0.1,0.3l0.1,0.3l0.1,0.4l0,0.4l0,0.4h0.8l0-0.4l0-0.3l0-0.3l0-0.3l0-0.3l0-0.3l0-0.3l0-0.4l0-0.3l0-0.4
		l0-0.4v-0.4l0-0.3l0-0.1l0-0.1l-0.1-0.1l-0.1-0.1l-0.1-0.1l-0.1,0H-0.2V101.6z"/>
	<path fill="#604E42" d="M120.8,101.6h0.5l0.5,0l0.5,0l0.2,0l0.2,0.1l0.2,0.1l0.2,0.1l0.2,0.1l0.1,0.2l0.1,0.2l0.1,0.3l0.1,0.3
		l0,0.3l0,1.1l0,1.1l0.1,2.2l0,2.1l0,2.1l0,2.1l0,2.1l-0.1,2.2l0,1.1l0,1.1l0,0.3l-0.1,0.3l-0.1,0.2l-0.1,0.2l-0.1,0.2l-0.2,0.1
		l-0.2,0.1l-0.2,0.1l-0.2,0.1l-0.2,0l-0.5,0.1l-0.5,0h-0.5v0.7h16.8l0-0.1l0-0.1l0-0.1l0-0.1l0.1-0.3l0.1-0.4l0.1-0.4l0.1-0.4
		l0.3-0.9l0.3-0.9l0.1-0.4l0.1-0.4l0.1-0.4l0.1-0.3l0-0.1l0-0.1l0-0.1l0-0.1h-0.3l-0.2,0l-0.2,0l-0.1,0l-0.1,0l-0.1,0.1l-0.1,0.1
		l-0.1,0.1l-0.1,0.1l-0.1,0.2l-0.1,0.2l-0.1,0.3l-0.2,0.3l-0.2,0.3l-0.1,0.2l-0.1,0.2l-0.1,0.2l-0.2,0.2l-0.3,0.4l-0.3,0.3l-0.4,0.3
		l-0.4,0.3l-0.4,0.2l-0.2,0.1l-0.2,0.1l-0.3,0.1l-0.3,0l-0.3,0l-0.3,0h-5.4l-0.3,0l-0.2-0.1l-0.2-0.1l-0.2-0.1l-0.1-0.2l-0.1-0.2
		l-0.1-0.2l0-0.3v-8.4h5.4l0.4,0l0.3,0.1l0.3,0.1l0.3,0.1l0.2,0.2l0.2,0.2l0.2,0.2l0.1,0.3l0.1,0.2l0.1,0.2l0.1,0.3l0.1,0.3l0,0.3
		l0,0.2l0,0.2l0,0.1l0.1,0.1l0.1,0.1l0.1,0l0.2,0l0.1,0h0.1v-7.9l-0.3,0l-0.2,0l-0.2,0.1l-0.1,0.1l-0.1,0.1l0,0.1l0,0.1v0.2l0,0.2
		v0.2l0,0.2l0,0.2l-0.1,0.2l-0.1,0.3l-0.2,0.3l-0.2,0.3l-0.1,0.1l-0.1,0.1l-0.1,0.1l-0.1,0.1l-0.4,0.1l-0.4,0.1l-0.4,0.1l-0.5,0.1
		l-0.5,0l-0.5,0l-1.1,0l-0.5,0h-0.5l-0.5,0l-0.5,0l-0.4,0h-0.4v-8.7h6.8l0.4,0l0.4,0l0.3,0.1l0.3,0.1l0.3,0.1l0.3,0.2l0.2,0.2
		l0.2,0.2l0.2,0.3l0.1,0.3l0.1,0.3l0.1,0.3l0.1,0.3l0.1,0.4l0,0.4l0,0.4h0.8l0-0.4l0-0.3l0-0.3l0-0.3l0-0.3l0-0.3l0-0.3v-0.4l0-0.3
		l0-0.4l0-0.4v-0.4l0-0.3l0-0.1l-0.1-0.1l-0.1-0.1l-0.1-0.1l-0.1-0.1l-0.1,0h-16.3V101.6z"/>
	<path fill="#604E42" d="M41.9,106.2l0,0.4l0,0.3l0,0.3l0,0.3l0.1,0.3l0.1,0.3l0.2,0.5l0.3,0.5l0.3,0.4l0.3,0.4l0.4,0.4l0.3,0.3
		l0.3,0.3l0.7,0.5l0.8,0.5l0.8,0.5l1.6,0.9l0.8,0.5l0.8,0.5l0.7,0.5l0.7,0.5l0.3,0.2l0.3,0.2l0.3,0.3l0.3,0.3l0.2,0.3l0.2,0.3
		L53,117l0.2,0.3l0.1,0.3l0.1,0.3l0,0.3l0,0.3l0,0.4l0,0.4l-0.1,0.4l-0.1,0.4l-0.1,0.3l-0.2,0.3l-0.2,0.3l-0.2,0.2l-0.3,0.2
		l-0.3,0.2l-0.3,0.2l-0.3,0.1L51,122l-0.3,0.1l-0.4,0.1l-0.4,0l-0.4,0l-0.4,0l-0.4,0l-0.4,0l-0.4,0l-0.4-0.1l-0.4-0.1l-0.4-0.1
		l-0.4-0.1l-0.3-0.2l-0.3-0.2l-0.3-0.2l-0.3-0.2l-0.3-0.2l-0.3-0.2l-0.3-0.3l-0.3-0.3l-0.2-0.4l-0.2-0.4l-0.2-0.5l-0.2-0.5l-0.2-0.5
		l-0.1-0.5l-0.1-0.4l0-0.2l0-0.1l0-0.2l0-0.2l0-0.1l-0.1-0.1l-0.1-0.1l-0.1,0l-0.1,0l-0.1,0l-0.1,0l0,0.1l0,0.1l0,0.1l0,0.2l0,0.2
		l0,0.2l0,0.2l0,0.2l0,0.5l0,0.6v0.6v0.6l0,1.3v0.6l0,0.6l0,0.5v0.2v0.2l0,0.2v0.2v0.2v0.1h0.8l0-0.2l0-0.2l0-0.2l0.1-0.1l0.1-0.1
		l0.1-0.1l0.1-0.1l0.1-0.1l0.1,0l0.1,0h0.2l0.2,0l0.4,0.1l0.4,0.1l0.4,0.1l0.5,0.2l0.5,0.2l0.5,0.2l0.5,0.1l0.5,0.1l0.6,0.1l0.5,0
		h1.5l0.6,0l0.6-0.1l0.6-0.2l0.5-0.2l0.5-0.3l0.5-0.3l0.5-0.4l0.4-0.4l0.4-0.4l0.4-0.5l0.3-0.5l0.3-0.5l0.2-0.5l0.2-0.6l0.1-0.6
		l0-0.6l0-0.3l0-0.3l-0.1-0.6l-0.2-0.6l-0.2-0.5l-0.3-0.5l-0.3-0.5l-0.4-0.5l-0.4-0.4l-0.4-0.4l-0.5-0.4l-0.5-0.4l-0.5-0.4l-0.5-0.3
		l-0.5-0.3l-1.1-0.6l-1.1-0.6l-1.1-0.6l-0.5-0.3l-0.5-0.3l-0.5-0.3l-0.4-0.3l-0.4-0.3l-0.4-0.3l-0.3-0.3l-0.3-0.3l-0.2-0.4l-0.2-0.4
		l-0.1-0.4l0-0.4l0-0.4l0.1-0.4l0.1-0.4l0.2-0.4l0.2-0.3l0.2-0.3l0.3-0.3l0.3-0.2l0.3-0.2l0.4-0.2L47,102l0.4-0.1l0.4-0.1l0.4,0h0.4
		l0.4,0l0.4,0.1l0.4,0.1l0.4,0.2l0.4,0.2l0.4,0.2l0.4,0.3l0.4,0.3l0.4,0.4l0.3,0.4l0.3,0.5l0.3,0.5l0.2,0.5l0.2,0.6l0.2,0.6l0.1,0.7
		l0.1,0.7h0.7v-7.7l-0.2,0l-0.2,0l-0.1,0l-0.1,0l-0.1,0l-0.1,0.1l-0.1,0.1l0,0.1l0,0.1l0,0.2l0,0.1l-0.1,0.1l-0.1,0.1l-0.1,0l-0.1,0
		h-0.1l-0.1,0l-0.2,0l-0.2,0l-0.2-0.1l-0.3-0.1l-0.3-0.1l-0.3-0.1l-0.4-0.1l-0.4-0.1l-0.4-0.1l-0.4-0.1l-0.4-0.1l-0.4-0.1l-0.4,0
		l-0.4,0l-0.4,0l-0.4,0l-0.4,0l-0.4,0.1l-0.4,0.1l-0.4,0.1l-0.4,0.1l-0.4,0.1l-0.4,0.2l-0.3,0.2l-0.3,0.2l-0.3,0.2l-0.3,0.2
		l-0.3,0.2l-0.3,0.3l-0.3,0.3l-0.2,0.3l-0.2,0.3l-0.2,0.3l-0.2,0.3l-0.1,0.4l-0.1,0.4l-0.1,0.4l-0.1,0.4l0,0.4L41.9,106.2z"/>
	<path fill="#604E42" d="M25.4,62.7l0.5-0.1l0.5-0.1l0.4-0.1l0.4-0.2l0.4-0.2l0.4-0.2l0.3-0.3l0.3-0.3l0.3-0.3l0.3-0.4l0.3-0.4
		l0.3-0.4l0.6-0.8l0.6-0.9l1-1.5l1-1.6l0.2-0.4l0.2-0.4l0.2-0.4l0.2-0.3l0.4-0.6l0.4-0.5l0.3-0.5l0.3-0.5l0.3-0.6l0.1-0.3l0.1-0.3
		l0.1-0.3l0.1-0.3l0.2-0.3l0.2-0.3l0.2-0.3l0.3-0.3l0.6-0.7l0.6-0.6l0.6-0.6l0.3-0.3l0.3-0.3l0.3-0.2l0.3-0.2l0.4-0.3l0.3-0.3
		l0.3-0.3l0.3-0.3l0.6-0.5l0.5-0.5l0.5-0.5l0.5-0.6l0.6-0.6L44,41l0.3-0.3L45,40l0.6-0.6l0.6-0.6l0.7-0.6l0.2-0.2l0.2-0.2l0.3-0.3
		l0.3-0.3l0.2-0.1l0.2-0.2l4.1-3.6l0.3-0.3l0.3-0.3l0.7-0.7l0.3-0.4l0.3-0.3l0.3-0.3l0.1-0.1l0.1-0.1l0.2-0.1l0.2-0.1l0.2-0.1
		l0.3-0.1l0.3-0.1l0.3-0.1l0.4-0.1l0.4-0.1l0.4-0.2l0.5-0.2l0.5-0.3l0.5-0.3l0.3-0.2l0.3-0.2l0.3-0.2l0.3-0.2l0.3-0.2l0.3-0.3
		l0.4-0.3l0.4-0.3l0.1-0.1l0.1-0.1l0.1-0.1l0.1-0.1l0.3-0.3l0.4-0.3l0.4-0.4l0.4-0.4l0.9-0.8l0.4-0.4l0.4-0.4l0.4-0.4l0.3-0.4
		l0.1-0.2l0.1-0.2l0.1-0.1l0.1-0.1l0.1-0.1l0.1-0.1l0-0.1l0-0.1v-0.7l-0.7,0l-0.7,0.1l-0.7,0.1l-0.7,0.2l-0.7,0.2l-0.7,0.3l-0.7,0.3
		L61.2,23l-0.7,0.4l-0.6,0.4l-0.6,0.4l-0.6,0.4l-0.6,0.4l-0.6,0.4L57,26l-0.5,0.4l-8.3,7.3l-0.4,0.4l-0.4,0.5l-0.5,0.5l-0.5,0.5
		l-1,1.1l-0.9,1.1l-0.9,1.1L42.6,40l-0.4,0.5L41.7,41l-0.4,0.5L40.9,42l-0.6,0.7l-0.6,0.7l-0.6,0.7l-0.6,0.7L25.4,62.7z"/>
	<path fill="#604E42" d="M235.4,111.7v0.4v0.4l0,0.4l0,0.4l0,0.7l0.1,0.6l0.1,0.6l0.2,0.6l0.1,0.3l0.1,0.3l0.1,0.4l0.1,0.4l0.1,0.3
		l0.1,0.3l0.2,0.4l0.2,0.4l0.2,0.4l0.2,0.3l0.2,0.3l0.3,0.4l0.3,0.4l0.3,0.4l0.3,0.4l0.4,0.3l0.4,0.3l0.4,0.3l0.4,0.3l0.5,0.3
		l0.5,0.2l0.5,0.2l0.5,0.2l0.5,0.2l0.5,0.1l0.5,0.1l0.6,0.1l0.6,0l0.6,0l0.6,0l0.6,0l0.6-0.1l0.6-0.1l0.5-0.1l0.5-0.2l0.5-0.2
		l0.5-0.2l0.5-0.3l0.5-0.3l0.5-0.3l0.5-0.4l0.4-0.4l0.4-0.4l0.4-0.5l0.4-0.5l0.2-0.3l0.2-0.3l0.2-0.3l0.2-0.3l0.1-0.2l0.1-0.2
		l0.1-0.2l0-0.1l0-0.1v-0.1l0-0.1l0-0.1l-0.1,0l-0.1,0l-0.1,0l-0.1,0l-0.1,0.1l-0.1,0.1L254,118l-0.1,0.2l-0.6,0.8l-0.3,0.4
		l-0.3,0.4l-0.4,0.4l-0.4,0.3l-0.4,0.3l-0.4,0.3l-0.4,0.2l-0.4,0.2l-0.4,0.2l-0.5,0.2l-0.5,0.1l-0.5,0.1l-0.6,0l-0.6,0l-0.5,0
		l-0.4,0l-0.4-0.1l-0.4-0.1l-0.4-0.1l-0.4-0.1l-0.4-0.1l-0.4-0.2l-0.4-0.2l-0.3-0.2l-0.3-0.2l-0.3-0.2l-0.3-0.2l-0.3-0.3l-0.3-0.3
		l-0.3-0.3l-0.3-0.3l-0.2-0.3l-0.2-0.3l-0.2-0.3l-0.4-0.7l-0.3-0.7l-0.2-0.8l-0.2-0.8l-0.1-0.8l0-0.8v-3l0-0.8l0.1-0.8l0.1-0.8
		l0.2-0.8l0.3-0.8l0.3-0.8l0.4-0.7l0.4-0.7l0.2-0.3l0.2-0.3l0.3-0.3l0.3-0.3l0.3-0.3l0.3-0.2l0.3-0.2l0.3-0.2l0.3-0.2l0.3-0.2
		l0.3-0.1l0.4-0.1l0.4-0.1l0.4-0.1l0.4,0l0.4,0l0.7,0l0.6,0l0.6,0l0.5,0.1l0.5,0.1l0.5,0.1l0.5,0.2l0.4,0.2l0.4,0.2l0.4,0.3l0.4,0.3
		l0.4,0.4l0.3,0.4l0.3,0.5l0.3,0.6l0.3,0.6l0.1,0.3l0.1,0.3l0.1,0.2l0.1,0.2l0,0.2l0,0.2l0,0.1l0,0.1l0,0.1l0,0.1l0.1,0.1l0.1,0
		l0.1,0l0.1,0l0.2,0l0.2,0l-0.5-7.6h-0.8l0,0.3l0,0.3l0,0.2l-0.1,0.2l-0.1,0.1l-0.1,0.1l-0.1,0.1l-0.1,0.1l-0.1,0l-0.1,0l-0.1,0
		l-0.2,0l-0.2,0l-0.2,0l-0.4-0.1l-0.4-0.2l-0.5-0.2l-0.5-0.2l-0.5-0.2l-0.6-0.2l-0.6-0.1l-0.6-0.1l-0.6,0l-0.7,0l-0.7,0l-0.6,0
		l-0.6,0.1l-0.6,0.1l-0.6,0.1l-0.5,0.2l-0.5,0.2l-0.5,0.2l-0.5,0.3l-0.5,0.3l-0.5,0.3l-0.5,0.4l-0.5,0.4l-0.4,0.4l-0.4,0.5l-0.3,0.3
		l-0.3,0.4l-0.3,0.4l-0.3,0.4l-0.3,0.4l-0.3,0.5l-0.2,0.5l-0.2,0.5l-0.2,0.5l-0.2,0.5l-0.2,0.6l-0.1,0.6l-0.1,0.6l-0.1,0.6l-0.1,0.6
		L235.4,111.7z"/>
	<path fill="#604E42" d="M23.9,87.4H24l0.2,0l0.2,0l0.2,0l0.5,0l0.5-0.1l0.5-0.1l0.4-0.1l0.2,0l0.2,0l0.1,0l0.1,0l0-0.1l0-0.1l0-0.1
		l0-0.1l0-0.1l0-0.1l0-0.1l0.1-0.1l0.1-0.1l0.1-0.1l0.4-0.6l0.4-0.6l0.3-0.7l0.3-0.7l0.3-0.7l0.3-0.7l0.3-0.8l0.3-0.8l0.5-1.6
		l0.3-0.8l0.3-0.8l0.3-0.8l0.4-0.8l0.4-0.8l0.4-0.8l0.1-0.2l0.1-0.1l0.1-0.2l0.1-0.2l0.1-0.1l0.1-0.1l0.1-0.1l0.2-0.2l0.1-0.1
		l0.1-0.2l0.1-0.2L34,72l0.1-0.2l0.1-0.2l0.1-0.2l0.1-0.2l0.1-0.2l0.1-0.3l0.1-0.3l0.1-0.3l0.2-0.4l0.1-0.3l0.1-0.3l0.1-0.3l0.1-0.2
		l0.1-0.2l0.1-0.2l0.1-0.2l0.1-0.1l0-0.1l0-0.1l0.1-0.2l0.1-0.1l0.1-0.1l0.1-0.1l0.1-0.1l0.1-0.1l0.2-0.2l0.1-0.1l0.1-0.1l0.1-0.1
		l0.1-0.2l0.1-0.2l0.2-0.2l0.7-0.9l0.6-0.9l0.6-1l0.6-1l0.3-0.5l0.3-0.5l0.3-0.5l0.3-0.5l0.2-0.3l0.2-0.2l0.3-0.4l0.4-0.4l0.2-0.2
		l0.2-0.2L43,58l0.3-0.4l0.3-0.4l0.4-0.4l5.2-5.8l0.2-0.3l0.3-0.3l0.3-0.3l0.3-0.4l0.3-0.4l0.3-0.4l0.7-0.9l0.7-0.9l0.7-0.9l0.3-0.4
		l0.3-0.4L54,45l0.3-0.3l0.8-0.8l0.8-0.8l0.8-0.8l0.7-0.7l0.8-0.7l0.8-0.7l0.8-0.7l0.8-0.7l0.8-0.6l0.8-0.6l0.8-0.6l0.8-0.6l0.9-0.6
		l0.9-0.6l0.9-0.6l1-0.6l0.3-0.2l0.2-0.1l0.3-0.1l0.3-0.2l3.1-1.7l0.2-0.1l0.1-0.1l0.1-0.1l0.1-0.1l0.1-0.1l0-0.1l0-0.2l0-0.1v-0.1
		l-0.2,0.1l-0.3,0.1l-0.3,0.1L70.9,31l-0.3,0.1l-0.3,0.1L70,31.3l-0.2,0.1l-0.4,0.2L69,31.7l-0.3,0.1l-0.3,0.1L68.1,32l-0.2,0.1
		l-0.4,0.2L67,32.4l-0.2,0.1l-0.3,0.1l-0.3,0.1L65.9,33l-0.4,0.2l-0.4,0.2l-0.3,0.2l-0.3,0.2l-0.3,0.2L64,34.1l-0.2,0.1l-0.2,0.1
		l-0.2,0.1l-0.2,0.1l-0.3,0.2l-0.3,0.2L62.4,35l-0.2,0.2l-0.2,0.2l-0.2,0.2l-0.2,0.2L61.2,36L61,36.2l-0.2,0.2l-0.2,0.2l-0.2,0.2
		L60.3,37l-0.2,0.2l-0.3,0.2l-0.3,0.3l-3.4,3.2l-0.6,0.6L55,42.1l-0.5,0.6L54,43.2l-0.5,0.5L53,44.2l-0.5,0.5l-0.4,0.5L51.3,46
		l-0.8,0.9l-0.8,0.8L49,48.6l-0.7,0.8l-0.7,0.9l-0.7,0.9L46,52.1l-0.4,0.5l-0.4,0.5l-0.4,0.5l-0.4,0.5l-0.5,0.6l-0.5,0.6l-0.5,0.6
		l-0.5,0.6l-3.8,4.5l-0.2,0.2l-0.2,0.2L38,61.6l-0.2,0.2l-0.1,0.2l-0.1,0.1l-0.1,0.1l-0.1,0.1l-0.2,0.2L37,62.7l-0.2,0.3l-0.1,0.1
		l-0.1,0.2l-0.1,0.2l-0.1,0.1l-0.1,0.1l-0.1,0.1L36,64l-0.1,0.2l-0.1,0.2l-0.2,0.2L35.4,65l-0.2,0.3L35,65.6l-0.2,0.4l-0.2,0.3
		l-0.2,0.3l-0.2,0.3l-0.1,0.3l-0.1,0.3l-0.2,0.5l-0.2,0.5l-0.2,0.5L33.1,69L33,69.2l-0.2,0.3l-0.2,0.3l-0.2,0.3l-0.1,0.3l-0.1,0.2
		l-0.1,0.2l-0.1,0.4L32,71.8l0,0.3l0,0.3l-0.1,0.3L31.8,73l-0.1,0.4l-0.1,0.4l-0.1,0.3l-0.1,0.3l-0.1,0.3l-0.1,0.3l-0.2,0.6
		l-0.2,0.6l-0.2,0.6l-0.2,0.6l-0.5,1.1l-0.3,0.5l-0.3,0.6l-0.6,1.1L28,81.6l-0.6,1l-0.6,1L23.9,87.4z"/>
	<path fill="#604E42" d="M80.1,105.7v0.5h0.7l0-0.4l0-0.4l0.1-0.4l0.1-0.3l0.1-0.3l0.1-0.3l0.1-0.2l0.1-0.2l0.2-0.2l0.2-0.2l0.2-0.2
		l0.2-0.1l0.2-0.1l0.2-0.1l0.5-0.2l0.5-0.1l0.5-0.1l0.6,0l0.6,0l1.2,0l1.1,0v17.3v0.4l0,0.4l0,0.4l-0.1,0.3l-0.1,0.3l-0.1,0.3
		l-0.2,0.2l-0.2,0.2l-0.3,0.1l-0.2,0.1l-0.2,0.1l-0.2,0l-0.2,0h-0.2l-0.3,0h-0.1h-0.1l-0.1,0l-0.1,0l-0.1,0.1l-0.1,0.1l0,0.2l0,0.2
		h9.4v-0.7h-0.4l-0.4,0l-0.4,0l-0.3,0l-0.3,0l-0.3-0.1l-0.2-0.1l-0.2-0.1l-0.2-0.2l-0.1-0.2l-0.1-0.3l-0.1-0.3l-0.1-0.4l-0.1-0.4
		l0-0.5l0-0.3v-0.3v-16.8l1.3,0l0.6,0h0.6l0.6,0l0.5,0l0.5,0.1l0.5,0.1l0.4,0.2l0.2,0.1l0.2,0.1l0.2,0.1l0.2,0.2l0.2,0.2l0.2,0.2
		l0.1,0.2l0.1,0.3l0.1,0.3l0.1,0.3l0.1,0.3l0.1,0.4l0.1,0.4l0,0.4h0.7l-0.2-5.3H80.3l0,0.6l0,0.6l0,0.6l0,0.6l0,0.6l0,0.6l0,0.6
		L80.1,105.7z"/>
	<path fill="#604E42" d="M162.2,105.7v0.5h0.7l0-0.4l0-0.4l0.1-0.4l0.1-0.3l0.1-0.3l0.1-0.3l0.1-0.2l0.1-0.2l0.2-0.2l0.2-0.2
		l0.2-0.2l0.2-0.1l0.2-0.1l0.2-0.1l0.5-0.2l0.5-0.1l0.5-0.1l0.6,0l0.6,0l1.2,0l1.1,0v17.3v0.3l0,0.3l0,0.3l0,0.3l-0.1,0.2l-0.1,0.2
		l-0.1,0.2l-0.1,0.2l-0.1,0.2l-0.2,0.1l-0.2,0.1l-0.2,0.1l-0.2,0.1l-0.3,0.1l-0.3,0l-0.3,0h-0.3H167l-0.2,0l-0.1,0l-0.1,0.1l0,0.1
		l0,0.1l0,0.1l0,0.1l0,0.1h9.4v-0.7h-0.8l-0.4,0l-0.4,0l-0.4-0.1l-0.2-0.1l-0.2-0.1l-0.1-0.1l-0.1-0.1l-0.1-0.2l-0.1-0.2l0-0.1
		l0-0.1l0-0.1l0-0.1l0-0.3l0-0.4l0-0.4l0-0.5l0-0.5l0-0.6l0-0.6l0-0.7l0-0.7l0-0.8l0-0.8l0-0.8v-1.6v-1.6l0-1.6v-0.8l0-0.8V107
		l0-0.7v-0.7l0-0.6v-0.6l0-0.5v-0.5l0-0.4v-0.4v-0.3l1.3,0l0.6,0h0.6l0.6,0l0.5,0l0.5,0.1l0.5,0.1l0.4,0.2l0.2,0.1l0.2,0.1l0.2,0.1
		l0.2,0.2l0.2,0.2l0.2,0.2l0.1,0.2l0.1,0.3l0.1,0.3l0.1,0.3l0.1,0.3l0.1,0.4l0.1,0.4l0,0.4h0.7l-0.2-5.3h-17.8l0,0.6l0,0.6l0,0.6
		l0,0.6l0,0.6l0,0.6l0,0.6L162.2,105.7z"/>
	<path fill="#604E42" d="M90.7,139.9H167v-1.2H90.7V139.9z"/>
	<path fill="#604E42" d="M203.1,101.6l0.6,0l0.5,0l0.3,0l0.2,0.1l0.2,0.1l0.2,0.1l0.2,0.1l0.2,0.1l0.2,0.2l0.1,0.2l0.1,0.2l0.1,0.3
		l0,0.3l0,0.3v16.6l0,0.4l0,0.4l-0.1,0.3l-0.1,0.3l-0.1,0.2l-0.1,0.2l-0.2,0.1l-0.2,0.1l-0.2,0.1l-0.2,0.1l-0.2,0l-0.3,0l-0.6,0
		h-0.6v0.7h9.2v-0.7l-0.6,0l-0.5,0l-0.3,0l-0.2,0l-0.2-0.1l-0.2-0.1l-0.2-0.1l-0.2-0.1l-0.2-0.2l-0.1-0.2l-0.1-0.2l-0.1-0.3l0-0.3
		l0-0.3v-16.8l0-0.4l0.1-0.3l0.1-0.3l0.1-0.2l0.1-0.2l0.2-0.2l0.2-0.1l0.2-0.1l0.2-0.1l0.2-0.1l0.2,0l0.3,0l0.5,0h0.5v-0.7h-9.2
		V101.6z"/>
	<path fill="#604E42" d="M85.2,15.5l0.7,0l0.7-0.1l0.7-0.1l0.7-0.2l0.6-0.2l0.6-0.2l0.6-0.2l0.6-0.2l0.5-0.2l0.5-0.2l0.5-0.2
		l0.4-0.2l0.4-0.2l0.3-0.2l0.3-0.1l0.1,0l0.1,0l0-0.1l0-0.1l-0.1-0.2l-0.1-0.2l-0.1-0.3l0.2-0.1l0.2-0.1l0.4-0.2l0.3-0.2l0.3-0.2
		l0.3-0.1l0.2-0.1l0.4-0.3l0.2-0.1l0.2-0.1l0.3-0.1l0.3-0.1l0.4-0.1l0.4-0.1l0.2-0.1l0.3-0.1l0.3-0.1l0.3-0.1L99,9.2L99.6,9l0.7-0.2
		l0.7-0.1l0.7-0.1l0.7-0.1l0.7-0.1l0.7-0.1l1.4-0.1l1.5,0h1.5l1.5,0l1.5,0l1.5,0.1l1.5,0.1l1.5,0.1l1.4,0.1l1.4,0.1l1.3,0l1.3,0h0.1
		l0.1,0l0.1,0l0,0l0-0.1l0-0.1l0.1-0.1l-0.1,0l-0.1,0l-0.1,0l-0.2,0l-0.2,0l-0.2,0l-0.5,0l-0.5-0.1L118.9,8l-0.6-0.1l-0.7-0.1
		l-0.9-0.2l-0.9-0.2L115,7.1l-0.8-0.3l-0.8-0.3l-0.8-0.3l-0.8-0.3l-0.4-0.1l-0.4-0.1l-0.6-0.2l-0.6-0.2l-0.6-0.1L108.6,5l-0.5-0.1
		l-0.5-0.1l-0.4,0l-0.4,0h-0.4l-0.5,0l-0.5,0l-0.5,0.1l-0.5,0.1L103.8,5l-0.6,0.1l-0.6,0.1l-0.2,0l-0.2,0l-0.3,0l-0.2,0h-0.2h-0.1
		l-0.1,0l-0.2,0l-0.1,0l-0.1,0l-0.1,0l-0.1,0.1l-0.2,0.1l-0.2,0.1L100,5.9L99.9,6l-0.2,0.1l-0.2,0.1l-0.6,0.4L98.3,7l-1.2,0.7
		l-1.3,0.7l-0.7,0.3l-0.7,0.3l-5,2.8L89.3,12L89,12.2l-0.3,0.2l-0.3,0.2l-0.6,0.4l-0.6,0.5l-0.6,0.5L86,14.5l-0.2,0.2L85.6,15
		l-0.2,0.2L85.2,15.5z"/>
</g>
</svg>
